<svg width="12" height="16" viewBox="0 0 12 16" fill="none" xmlns="http://www.w3.org/2000/svg">
<path fill-rule="evenodd" clip-rule="evenodd" d="M10 6.6665V4C10 1.7915 8.20874 0 6 0C3.79126 0 2 1.7915 2 4V6.6665H0V16H12V6.6665H10ZM6.66675 11.8154V13.3335H5.3335V11.8154C4.93677 11.584 4.66675 11.1597 4.66675 10.667C4.66675 9.93066 5.26416 9.3335 6 9.3335C6.73608 9.3335 7.3335 9.93066 7.3335 10.667C7.3335 11.1587 7.06396 11.584 6.66675 11.8154ZM3.33325 4V6.66699H8.6665V4C8.6665 2.5293 7.46997 1.3335 6 1.3335C4.5293 1.3335 3.33325 2.5293 3.33325 4Z" fill="#F9C23B"/>
</svg>
