<svg width="8" height="5" viewBox="0 0 8 5" fill="none" xmlns="http://www.w3.org/2000/svg">
<path d="M7.80997 0.570268L7.42493 0.188342C7.2915 0.0627925 7.13566 0 6.95778 0C6.77622 0 6.62223 0.0627925 6.49556 0.188342L4.00002 2.66298L1.50449 0.188413C1.37784 0.0628638 1.22382 7.13348e-05 1.04233 7.13348e-05C0.864354 7.13348e-05 0.70855 0.0628638 0.575103 0.188413L0.195118 0.57034C0.0650154 0.69926 0 0.853753 0 1.03368C0 1.21695 0.0650873 1.3697 0.1951 1.49188L3.53784 4.80654C3.66113 4.93548 3.8151 5 4 5C4.18143 5 4.33722 4.9355 4.46719 4.80654L7.80995 1.49188C7.93662 1.36626 8 1.21353 8 1.03368C8.00002 0.857106 7.93664 0.702701 7.80997 0.570268Z" fill="#F9C23B"/>
</svg>
