<svg width="98" height="73" viewBox="0 0 98 73" fill="none" xmlns="http://www.w3.org/2000/svg">
<path d="M59.98 29.99H45.22C45.22 21.59 38.39 14.76 29.99 14.76C21.59 14.76 14.76 21.59 14.76 29.99H0C0 13.45 13.45 0 29.99 0C46.53 0 59.98 13.45 59.98 29.99Z" fill="url(#paint0_linear)"/>
<path d="M0 41.49H2.21997V49.51L6.25 45.21H8.95001L5.08997 49.16L9.07996 54.91H6.51001L3.58997 50.72L2.22998 52.14V54.92H0.0100098V41.49H0Z" fill="white"/>
<path d="M16.1401 54.91V53.72C15.4801 54.51 14.4701 55.12 13.0001 55.12C11.1601 55.12 9.54004 54.07 9.54004 52.09C9.54004 49.94 11.21 48.91 13.47 48.91C14.65 48.91 15.4 49.0799 16.15 49.3099V49.13C16.15 47.79 15.3001 47.05 13.7601 47.05C12.6801 47.05 11.87 47.29 10.98 47.66L10.3701 45.88C11.4401 45.4 12.4801 45.0699 14.0701 45.0699C16.9401 45.0699 18.34 46.58 18.34 49.17V54.92H16.1401V54.91ZM16.2001 50.85C15.6301 50.63 14.84 50.46 13.98 50.46C12.58 50.46 11.7601 51.03 11.7601 52C11.7601 52.92 12.5901 53.4301 13.6401 53.4301C15.1101 53.4301 16.21 52.6 16.21 51.39V50.85H16.2001Z" fill="white"/>
<path d="M19.9299 53.38L25.5399 47.02H20.14V45.2H28.3799V46.73L22.7699 53.09H28.3799V54.91H19.9399V53.38H19.9299Z" fill="white"/>
<path d="M36.2499 54.91V53.72C35.5899 54.51 34.5799 55.12 33.1099 55.12C31.2699 55.12 29.6499 54.07 29.6499 52.09C29.6499 49.94 31.3199 48.91 33.5799 48.91C34.7599 48.91 35.5099 49.0799 36.2599 49.3099V49.13C36.2599 47.79 35.4099 47.05 33.8699 47.05C32.7899 47.05 31.9799 47.29 31.0899 47.66L30.4799 45.88C31.5499 45.4 32.5899 45.0699 34.1799 45.0699C37.0499 45.0699 38.45 46.58 38.45 49.17V54.92H36.2499V54.91ZM36.3099 50.85C35.7399 50.63 34.9499 50.46 34.0899 50.46C32.6899 50.46 31.8699 51.03 31.8699 52C31.8699 52.92 32.6999 53.4301 33.7499 53.4301C35.2199 53.4301 36.3199 52.6 36.3199 51.39V50.85H36.3099Z" fill="white"/>
<path d="M40.8501 41.49H43.0701V49.51L47.1001 45.21H49.8001L45.9401 49.16L49.9301 54.91H47.3601L44.4401 50.72L43.0801 52.14V54.92H40.8601V41.49H40.8501Z" fill="white"/>
<path d="M51.26 41.49H53.48V46.71C54.11 45.79 55.01 45 56.51 45C58.7 45 59.97 46.47 59.97 48.73V54.91H57.75V49.39C57.75 47.88 57 47.02 55.67 47.02C54.38 47.02 53.48 47.9201 53.48 49.4301V54.91H51.26V41.49Z" fill="white"/>
<path d="M61.5601 53.64L62.55 52.13C63.6 52.92 64.74 53.33 65.73 53.33C66.69 53.33 67.2401 52.93 67.2401 52.25C67.2401 51.53 66.3001 51.28 65.2401 50.96C65.1801 50.94 65.1301 50.92 65.0701 50.9C63.6401 50.48 62.04 49.89 62.04 48C62.04 46.16 63.5701 45.04 65.5001 45.04C66.7101 45.04 68.0401 45.46 69.0701 46.14L68.1901 47.72C67.2501 47.15 66.2601 46.8 65.4501 46.8C64.5901 46.8 64.09 47.1999 64.09 47.8099C64.09 48.4699 65.03 48.77 66.09 49.12C66.15 49.14 66.22 49.1601 66.27 49.1801C67.69 49.6201 69.29 50.26 69.29 52.05C69.29 54.09 67.7101 55.1 65.6901 55.1C64.3001 55.09 62.7701 54.6 61.5601 53.64Z" fill="white"/>
<path d="M71.6499 52.23V47.12H70.4199V45.21H71.6499V42.54H73.8699V45.21H76.4799V47.12H73.8699V51.88C73.8699 52.74 74.3099 53.09 75.0699 53.09C75.5699 53.09 76.01 52.98 76.45 52.76V54.58C75.9 54.89 75.27 55.08 74.45 55.08C72.81 55.08 71.6499 54.36 71.6499 52.23Z" fill="white"/>
<path d="M84.35 54.91V53.72C83.69 54.51 82.68 55.12 81.21 55.12C79.37 55.12 77.75 54.07 77.75 52.09C77.75 49.94 79.42 48.91 81.68 48.91C82.86 48.91 83.61 49.0799 84.36 49.3099V49.13C84.36 47.79 83.51 47.05 81.97 47.05C80.89 47.05 80.08 47.29 79.19 47.66L78.58 45.88C79.65 45.4 80.69 45.0699 82.28 45.0699C85.15 45.0699 86.55 46.58 86.55 49.17V54.92H84.35V54.91ZM84.41 50.85C83.84 50.63 83.05 50.46 82.19 50.46C80.79 50.46 79.97 51.03 79.97 52C79.97 52.92 80.8 53.4301 81.85 53.4301C83.32 53.4301 84.42 52.6 84.42 51.39V50.85H84.41Z" fill="white"/>
<path d="M88.95 45.2H91.1699V46.71C91.7999 45.79 92.7 45 94.2 45C96.39 45 97.6599 46.47 97.6599 48.73V54.91H95.4399V49.39C95.4399 47.88 94.6899 47.02 93.3599 47.02C92.0699 47.02 91.1699 47.9201 91.1699 49.4301V54.91H88.95V45.2Z" fill="white"/>
<path d="M0 69.71H2.45001V72.23H0V69.71Z" fill="white"/>
<path d="M4.87012 69.54V64.4301H3.64014V62.52H4.87012V59.85H7.09009V62.52H9.70013V64.4301H7.09009V69.1899C7.09009 70.0499 7.5301 70.4 8.2901 70.4C8.7901 70.4 9.2301 70.2899 9.6701 70.0699V71.89C9.1201 72.2 8.49011 72.39 7.6701 72.39C6.03011 72.39 4.87012 71.67 4.87012 69.54Z" fill="white"/>
<path d="M11.6001 62.52H13.8201V64.7099C14.4301 63.2599 15.5501 62.2599 17.2601 62.3399V64.6899H17.1301C15.1801 64.6899 13.8201 65.96 13.8201 68.53V72.2299H11.6001V62.52Z" fill="white"/>
<path d="M24.5499 72.23V71.04C23.8899 71.83 22.8799 72.4399 21.4099 72.4399C19.5699 72.4399 17.95 71.39 17.95 69.41C17.95 67.26 19.6199 66.23 21.8799 66.23C23.0599 66.23 23.8099 66.4 24.5599 66.63V66.45C24.5599 65.11 23.7099 64.37 22.1699 64.37C21.0899 64.37 20.28 64.61 19.39 64.98L18.7799 63.2C19.8499 62.72 20.8899 62.39 22.4799 62.39C25.3499 62.39 26.7499 63.9 26.7499 66.49V72.24H24.5499V72.23ZM24.6099 68.16C24.0399 67.94 23.25 67.77 22.39 67.77C20.99 67.77 20.1699 68.3399 20.1699 69.3099C20.1699 70.2299 20.9999 70.74 22.0499 70.74C23.5199 70.74 24.6199 69.91 24.6199 68.7V68.16H24.6099Z" fill="white"/>
<path d="M27.6599 62.52H30.0499L32.6599 69.65L35.2899 62.52H37.6199L33.6499 72.3H31.6499L27.6599 62.52Z" fill="white"/>
<path d="M38.0801 67.37C38.0801 64.59 40.0501 62.3099 42.8201 62.3099C45.9101 62.3099 47.4701 64.74 47.4701 67.53C47.4701 67.68 47.4501 68.04 47.4301 68.16H40.3001C40.5401 69.74 41.6601 70.62 43.0901 70.62C44.1701 70.62 44.9501 70.22 45.7201 69.46L47.0301 70.62C46.1101 71.72 44.8401 72.4399 43.0601 72.4399C40.2501 72.4499 38.0801 70.41 38.0801 67.37ZM45.2701 66.6899C45.1201 65.2599 44.2801 64.13 42.8101 64.13C41.4501 64.13 40.4901 65.1799 40.2901 66.6899H45.2701Z" fill="white"/>
<path d="M49.5 58.8H51.72V72.22H49.5V58.8Z" fill="white"/>
<defs>
<linearGradient id="paint0_linear" x1="29.9937" y1="0.2748" x2="29.9937" y2="30.2094" gradientUnits="userSpaceOnUse">
<stop stop-color="#FFEE25"/>
<stop offset="1" stop-color="#E2312D"/>
</linearGradient>
</defs>
</svg>
