<svg width="1184" height="1239" viewBox="0 0 1184 1239" fill="none" xmlns="http://www.w3.org/2000/svg">
<path opacity="0.211105" d="M1093.96 560.752C1143.28 486.795 1162.98 414.855 1115.45 325.328C1075.78 250.794 1109.12 201.2 1151.54 164.15C1099.75 139.641 1040.79 139.065 1032.39 263.625C993.957 257.425 955.938 252.235 931.969 276.167C975.774 285.25 1002.5 298.801 1017.65 315.38C907.036 311.92 880.313 340.754 877.007 378.381C1032.8 321.868 1117.38 441.815 1055.12 536.676C999.054 622.167 923.704 564.356 922.602 533.937C921.776 512.6 939.959 481.605 970.815 505.969C997.263 526.873 1009.25 530.045 1012.28 479.298C1003.6 432.011 957.453 398.276 894.501 459.691C848.906 417.162 808.407 418.315 784.714 458.25C763.362 494.003 793.116 529.9 807.443 518.511C861.992 475.261 896.43 551.093 848.906 580.215C784.3 619.86 732.919 519.088 678.783 536.82C676.992 535.955 675.202 535.09 673.411 534.225C672.584 532.351 671.758 530.477 670.931 528.603C687.875 472.09 591.587 418.315 629.468 350.557C657.294 300.82 729.613 337.005 688.426 393.951C677.543 408.945 711.843 440.085 746.006 417.739C784.163 392.798 785.265 350.413 744.628 302.838C803.31 236.954 771.076 188.514 725.894 179.575C677.406 182.891 680.436 195.29 700.41 222.97C723.69 255.263 694.073 274.293 673.686 273.428C644.621 272.275 589.245 193.271 671.069 134.74C761.847 69.5762 876.456 158.095 822.32 321.147C858.41 317.687 885.823 289.719 882.517 173.953C898.358 189.811 911.307 217.924 919.985 263.625C942.99 238.54 937.893 198.75 931.969 158.527C1050.99 149.733 1050.44 88.0296 1027.02 33.8229C991.616 78.3704 944.229 113.115 873.012 71.5946C787.469 21.7129 718.731 42.4729 648.065 94.0846C679.334 -11.1571 618.586 -11.7338 591.862 14.2162C565.139 -11.7338 504.253 -11.1571 535.66 94.0846C464.994 42.4729 396.256 21.8571 310.712 71.5946C239.495 113.115 192.109 78.2262 156.707 33.8229C133.289 88.0296 132.738 149.733 251.755 158.527C245.832 198.75 240.873 238.54 263.739 263.625C272.418 217.78 285.366 189.811 301.208 173.953C297.902 289.719 325.452 317.687 361.405 321.147C307.406 158.095 422.015 69.5762 512.793 134.74C594.479 193.415 539.241 272.275 510.176 273.428C489.789 274.293 460.172 255.263 483.452 222.97C503.426 195.29 506.457 182.747 457.968 179.575C412.786 188.658 380.552 236.954 439.234 302.838C398.598 350.557 399.7 392.942 437.857 417.739C472.019 440.085 506.319 408.945 495.437 393.951C454.111 336.861 526.568 300.82 554.394 350.557C592.276 418.171 495.988 471.945 512.931 528.603C512.104 530.477 511.278 532.351 510.451 534.225C508.661 535.09 506.87 535.955 505.079 536.82C451.081 519.088 399.7 619.86 334.957 580.215C287.433 551.093 322.008 475.405 376.42 518.511C390.746 529.9 420.5 494.003 399.149 458.25C375.318 418.315 334.819 417.162 289.361 459.691C226.409 398.276 180.125 432.011 171.584 479.298C174.752 530.045 186.599 526.873 213.047 505.969C243.903 481.605 262.086 512.6 261.26 533.937C260.158 564.356 184.67 622.311 128.743 536.676C66.48 441.67 151.059 321.724 306.855 378.381C303.549 340.61 276.826 311.92 166.212 315.38C181.364 298.801 208.226 285.25 251.893 276.167C227.924 252.091 189.905 257.425 151.472 263.625C143.07 139.065 84.1121 139.641 32.3177 164.15C74.8828 201.2 108.081 250.794 68.4085 325.328C20.7467 414.855 40.5828 486.795 89.8976 560.752C-10.6606 528.026 -11.2116 591.604 13.5836 619.572C-11.2116 647.54 -10.6606 711.262 89.8976 678.392C40.5828 752.35 20.8844 824.289 68.4085 913.816C108.081 988.35 74.745 1037.94 32.3177 1074.99C84.1121 1099.5 143.07 1100.08 151.472 975.52C189.905 981.719 227.924 986.909 251.893 962.977C208.088 953.895 181.364 940.343 166.212 923.764C276.826 927.224 303.549 898.39 306.855 860.763C151.335 917.276 66.7555 797.33 128.881 702.324C184.946 616.833 260.296 674.644 261.398 705.063C262.224 726.4 244.041 757.395 213.185 733.031C186.737 712.127 174.752 708.955 171.722 759.702C180.4 806.989 226.547 840.724 289.499 779.309C335.094 821.838 375.593 820.685 399.286 780.75C420.638 744.997 390.884 709.1 376.557 720.489C322.008 763.739 287.57 687.907 335.094 658.785C399.7 619.14 451.081 719.912 505.217 702.18C507.008 703.045 508.798 703.91 510.589 704.775C511.416 706.649 512.242 708.523 513.069 710.397C496.125 766.91 592.413 820.685 554.532 888.443C526.706 938.18 454.387 901.995 495.574 845.049C506.457 830.055 472.157 798.915 437.994 821.261C399.837 846.202 398.735 888.587 439.372 936.162C380.69 1002.05 412.924 1050.49 458.106 1059.42C506.594 1056.11 503.564 1043.71 483.59 1016.03C460.31 983.737 489.927 964.707 510.314 965.572C539.379 966.725 594.755 1045.73 512.931 1104.26C422.153 1169.42 307.544 1080.91 361.543 917.853C325.452 921.313 298.039 949.281 301.345 1065.05C285.504 1049.19 272.555 1021.08 263.877 975.375C240.873 1000.46 245.97 1040.25 251.893 1080.47C132.876 1089.27 133.427 1150.97 156.845 1205.18C192.247 1160.63 239.633 1125.89 310.85 1167.41C396.394 1217.29 465.131 1196.53 535.798 1144.92C504.528 1250.16 565.276 1250.73 592 1224.78C618.724 1250.73 679.61 1250.16 648.202 1144.92C718.869 1196.53 787.606 1217.14 873.15 1167.41C944.367 1125.89 991.753 1160.77 1027.16 1205.18C1050.57 1150.97 1051.12 1089.27 932.107 1080.47C938.03 1040.25 942.99 1000.46 920.123 975.375C911.445 1021.22 898.496 1049.19 882.655 1065.05C885.961 949.281 858.41 921.313 822.457 917.853C876.456 1080.91 761.847 1169.42 671.207 1104.26C589.521 1045.58 644.759 966.725 673.824 965.572C694.211 964.707 723.828 983.737 700.548 1016.03C680.574 1043.71 677.543 1056.25 726.032 1059.42C771.214 1050.34 803.448 1002.05 744.766 936.162C785.402 888.443 784.3 846.058 746.143 821.261C711.981 798.915 677.681 830.055 688.563 845.049C729.889 902.139 657.432 938.18 629.606 888.443C591.724 820.829 688.012 767.055 671.069 710.397C671.896 708.523 672.722 706.649 673.549 704.775C675.339 703.91 677.13 703.045 678.921 702.18C732.919 719.912 784.3 619.14 849.043 658.785C896.567 687.907 861.992 763.595 807.58 720.489C793.254 709.1 763.5 744.997 784.851 780.75C808.682 820.685 849.181 821.838 894.639 779.309C957.591 840.724 1003.88 806.989 1012.42 759.702C1009.25 708.955 997.401 712.127 970.953 733.031C940.097 757.395 921.914 726.4 922.74 705.063C923.842 674.644 999.33 616.689 1055.26 702.324C1117.52 797.33 1032.94 917.276 877.145 860.763C880.451 898.535 907.174 927.224 1017.79 923.764C1002.64 940.343 975.774 953.895 932.107 962.977C956.076 987.053 994.095 981.719 1032.53 975.52C1040.93 1100.08 1099.89 1099.5 1151.68 1074.99C1109.12 1037.94 1075.92 988.35 1115.59 913.816C1163.25 824.289 1143.42 752.35 1094.1 678.392C1194.66 711.118 1195.21 647.54 1170.42 619.572C1195.07 591.604 1194.52 528.026 1093.96 560.752Z" fill="#F0ECE7"/>
</svg>
