<?xml version="1.0" encoding="UTF-8"?>
<svg width="200px" height="198px" viewBox="0 0 200 198" version="1.1" xmlns="http://www.w3.org/2000/svg" xmlns:xlink="http://www.w3.org/1999/xlink">
    <!-- Generator: Sketch 50.2 (55047) - http://www.bohemiancoding.com/sketch -->
    <title>Group 2</title>
    <desc>Created with Sketch.</desc>
    <defs></defs>
    <g id="Page-1" stroke="none" stroke-width="1" fill="none" fill-rule="evenodd">
        <g id="public-detail" transform="translate(-320.000000, -1880.000000)" fill="#F5C93C">
            <g id="astana_by_night-copy" transform="translate(320.000000, 1880.000000)">
                <g id="Group-2">
                    <ellipse id="Oval-3-Copy-13" cx="12.6086957" cy="98.5657895" rx="12.6086957" ry="12.5921053"></ellipse>
                    <ellipse id="Oval-3-Copy-17" transform="translate(187.391304, 98.565789) scale(-1, 1) rotate(90.000000) translate(-187.391304, -98.565789) " cx="187.391304" cy="98.5657895" rx="12.6086957" ry="12.5921053"></ellipse>
                    <ellipse id="Oval-3-Copy" transform="translate(143.913043, 56.013158) scale(-1, 1) rotate(90.000000) translate(-143.913043, -56.013158) " cx="143.913043" cy="56.0131579" rx="12.6086957" ry="12.5921053"></ellipse>
                    <ellipse id="Oval-3-Copy-2" transform="translate(143.913043, 98.565789) scale(-1, 1) rotate(90.000000) translate(-143.913043, -98.565789) " cx="143.913043" cy="98.5657895" rx="12.6086957" ry="12.5921053"></ellipse>
                    <ellipse id="Oval-3-Copy-3" transform="translate(143.913043, 141.986842) scale(-1, 1) rotate(90.000000) translate(-143.913043, -141.986842) " cx="143.913043" cy="141.986842" rx="12.6086957" ry="12.5921053"></ellipse>
                    <ellipse id="Oval-3-Copy-7" cx="99.5652174" cy="12.5921053" rx="12.6086957" ry="12.5921053"></ellipse>
                    <ellipse id="Oval-3-Copy-6" transform="translate(99.565217, 56.013158) scale(-1, 1) rotate(90.000000) translate(-99.565217, -56.013158) " cx="99.5652174" cy="56.0131579" rx="12.6086957" ry="12.5921053"></ellipse>
                    <ellipse id="Oval-3-Copy-5" transform="translate(99.565217, 98.565789) scale(-1, 1) rotate(90.000000) translate(-99.565217, -98.565789) " cx="99.5652174" cy="98.5657895" rx="12.6086957" ry="12.5921053"></ellipse>
                    <ellipse id="Oval-3-Copy-4" transform="translate(100.434783, 141.986842) scale(-1, 1) rotate(90.000000) translate(-100.434783, -141.986842) " cx="100.434783" cy="141.986842" rx="12.6086957" ry="12.5921053"></ellipse>
                    <ellipse id="Oval-3-Copy-10" cx="56.0869565" cy="56.0131579" rx="12.6086957" ry="12.5921053"></ellipse>
                    <ellipse id="Oval-3-Copy-9" transform="translate(56.086957, 98.565789) scale(-1, 1) rotate(90.000000) translate(-56.086957, -98.565789) " cx="56.0869565" cy="98.5657895" rx="12.6086957" ry="12.5921053"></ellipse>
                    <ellipse id="Oval-3-Copy-8" transform="translate(56.956522, 141.986842) scale(-1, 1) rotate(90.000000) translate(-56.956522, -141.986842) " cx="56.9565217" cy="141.986842" rx="12.6086957" ry="12.5921053"></ellipse>
                    <ellipse id="Oval-3-Copy-33" transform="translate(99.565217, 185.407895) scale(-1, 1) rotate(90.000000) translate(-99.565217, -185.407895) " cx="99.5652174" cy="185.407895" rx="12.6086957" ry="12.5921053"></ellipse>
                </g>
            </g>
        </g>
    </g>
</svg>