<svg width="2975" height="3430" viewBox="0 0 2975 3430" fill="none" xmlns="http://www.w3.org/2000/svg">
<path d="M1148.16 540.838C1195.72 469.507 1214.72 400.123 1168.89 313.775C1130.62 241.887 1162.77 194.055 1203.7 158.32C1153.74 134.682 1096.87 134.126 1088.77 254.263C1051.7 248.284 1015.03 243.278 991.91 266.36C1034.16 275.12 1059.94 288.19 1074.55 304.18C967.861 300.843 942.085 328.653 938.897 364.944C1089.17 310.438 1170.75 426.125 1110.69 517.618C1056.61 600.072 983.938 544.315 982.875 514.976C982.078 494.397 999.616 464.502 1029.38 488.001C1054.89 508.162 1066.45 511.221 1069.37 462.277C1061 416.669 1016.49 384.132 955.771 443.366C911.792 402.348 872.73 403.46 849.878 441.976C829.284 476.46 857.982 511.082 871.8 500.098C924.415 458.384 957.631 531.522 911.792 559.61C849.479 597.848 799.92 500.654 747.705 517.757C745.977 516.922 744.25 516.088 742.523 515.254C741.726 513.446 740.929 511.639 740.131 509.831C756.474 455.324 663.601 403.46 700.139 338.108C726.978 290.137 796.732 325.038 757.005 379.961C746.509 394.422 779.592 424.456 812.543 402.904C849.346 378.849 850.409 337.969 811.214 292.083C867.814 228.539 836.724 181.819 793.144 173.198C746.376 176.396 749.299 188.354 768.564 215.051C791.018 246.198 762.453 264.552 742.789 263.718C714.754 262.605 661.343 186.408 740.264 129.955C827.822 67.1054 938.365 152.48 886.15 309.742C920.96 306.405 947.4 279.43 944.211 167.775C959.491 183.071 971.98 210.185 980.351 254.263C1002.54 230.068 997.623 191.691 991.91 152.897C1106.7 144.416 1106.17 84.9034 1083.59 32.6218C1049.44 75.5873 1003.73 109.098 935.044 69.0521C852.535 20.9418 786.235 40.9646 718.076 90.7434C748.236 -10.7609 689.643 -11.3171 663.867 13.7114C638.091 -11.3171 579.365 -10.7609 609.658 90.7434C541.499 40.9646 475.199 21.0809 392.691 69.0521C324 109.098 278.294 75.4482 244.148 32.6218C221.561 84.9034 221.03 144.416 335.825 152.897C330.111 191.691 325.328 230.068 347.384 254.263C355.754 210.046 368.243 183.071 383.523 167.775C380.334 279.43 406.907 306.405 441.585 309.742C389.502 152.48 500.045 67.1054 587.603 129.955C666.392 186.547 613.113 262.605 585.078 263.718C565.415 264.552 536.849 246.198 559.303 215.051C578.568 188.354 581.491 176.257 534.723 173.198C491.143 181.958 460.053 228.539 516.653 292.083C477.458 338.108 478.521 378.988 515.325 402.904C548.275 424.456 581.358 394.422 570.862 379.961C531.003 324.898 600.889 290.137 627.728 338.108C664.266 403.321 571.393 455.185 587.736 509.831C586.939 511.639 586.141 513.446 585.344 515.254C583.617 516.088 581.89 516.922 580.162 517.757C528.08 500.654 478.521 597.848 416.075 559.61C370.236 531.522 403.585 458.523 456.067 500.098C469.885 511.082 498.584 476.46 477.99 441.976C455.004 403.46 415.942 402.348 372.097 443.366C311.377 384.132 266.735 416.669 258.497 462.277C261.553 511.221 272.98 508.162 298.49 488.001C328.251 464.502 345.789 494.397 344.992 514.976C343.929 544.315 271.12 600.211 217.177 517.618C157.122 425.986 238.701 310.299 388.97 364.944C385.782 328.514 360.006 300.843 253.316 304.18C267.931 288.19 293.839 275.12 335.957 266.36C312.839 243.139 276.168 248.284 239.099 254.263C230.994 134.126 174.128 134.682 124.171 158.32C165.226 194.055 197.247 241.887 158.982 313.775C113.011 400.123 132.143 469.507 179.709 540.838C82.7176 509.275 82.1861 570.594 106.102 597.57C82.1861 624.545 82.7176 686.003 179.709 654.301C132.143 725.632 113.144 795.016 158.982 881.364C197.247 953.252 165.094 1001.08 124.171 1036.82C174.128 1060.46 230.994 1061.01 239.099 940.876C276.168 946.855 312.839 951.861 335.957 928.779C293.706 920.019 267.931 906.949 253.316 890.959C360.006 894.296 385.782 866.486 388.97 830.195C238.966 884.701 157.387 769.014 217.309 677.382C271.385 594.928 344.062 650.685 345.125 680.024C345.922 700.603 328.384 730.498 298.622 706.999C273.112 686.838 261.553 683.779 258.63 732.723C267.001 778.331 311.51 810.868 372.229 751.634C416.208 792.652 455.27 791.54 478.122 753.024C498.716 718.54 470.018 683.918 456.2 694.902C403.585 736.617 370.369 663.478 416.208 635.39C478.521 597.152 528.08 694.346 580.295 677.243C582.023 678.078 583.75 678.912 585.477 679.746C586.274 681.554 587.071 683.362 587.869 685.169C571.526 739.676 664.399 791.54 627.861 856.892C601.022 904.863 531.268 869.962 570.995 815.039C581.491 800.578 548.408 770.544 515.457 792.096C478.654 816.151 477.591 857.031 516.786 902.917C460.186 966.461 491.276 1013.18 534.856 1021.8C581.624 1018.6 578.701 1006.65 559.436 979.949C536.982 948.802 565.547 930.448 585.211 931.282C613.246 932.395 666.657 1008.59 587.736 1065.05C500.178 1127.89 389.635 1042.52 441.718 885.258C406.907 888.595 380.467 915.57 383.656 1027.22C368.376 1011.93 355.887 984.815 347.517 940.737C325.328 964.932 330.244 1003.31 335.957 1042.1C221.162 1050.58 221.694 1110.1 244.281 1162.38C278.427 1119.41 324.132 1085.9 392.823 1125.95C475.332 1174.06 541.632 1154.04 609.791 1104.26C579.631 1205.76 638.224 1206.32 664 1181.29C689.776 1206.32 748.502 1205.76 718.209 1104.26C786.368 1154.04 852.668 1173.92 935.177 1125.95C1003.87 1085.9 1049.57 1119.55 1083.72 1162.38C1106.31 1110.1 1106.84 1050.58 992.043 1042.1C997.756 1003.31 1002.54 964.932 980.483 940.737C972.113 984.954 959.624 1011.93 944.344 1027.22C947.533 915.57 920.96 888.595 886.282 885.258C938.365 1042.52 827.822 1127.89 740.397 1065.05C661.608 1008.45 714.887 932.395 742.922 931.282C762.586 930.448 791.151 948.802 768.697 979.949C749.432 1006.65 746.509 1018.74 793.277 1021.8C836.857 1013.04 867.947 966.461 811.347 902.917C850.542 856.892 849.479 816.012 812.675 792.096C779.725 770.544 746.642 800.578 757.138 815.039C796.997 870.102 727.111 904.863 700.272 856.892C663.734 791.679 756.607 739.815 740.264 685.169C741.061 683.362 741.859 681.554 742.656 679.746C744.383 678.912 746.11 678.078 747.838 677.243C799.92 694.346 849.479 597.152 911.925 635.39C957.763 663.478 924.415 736.477 871.933 694.902C858.115 683.918 829.416 718.54 850.01 753.024C872.996 791.54 912.058 792.652 955.903 751.634C1016.62 810.868 1061.27 778.331 1069.5 732.723C1066.45 683.779 1055.02 686.838 1029.51 706.999C999.749 730.498 982.211 700.603 983.008 680.024C984.071 650.685 1056.88 594.789 1110.82 677.382C1170.88 769.014 1089.3 884.701 939.03 830.195C942.218 866.625 967.994 894.296 1074.68 890.959C1060.07 906.949 1034.16 920.019 992.043 928.779C1015.16 952 1051.83 946.855 1088.9 940.876C1097.01 1061.01 1153.87 1060.46 1203.83 1036.82C1162.77 1001.08 1130.75 953.252 1169.02 881.364C1214.99 795.016 1195.86 725.632 1148.29 654.301C1245.28 685.864 1245.81 624.545 1221.9 597.57C1245.68 570.594 1245.15 509.275 1148.16 540.838Z" fill="#F0ECE7"/>
<path fill-rule="evenodd" clip-rule="evenodd" d="M1012 1831C1139.58 1831 1243 1727.58 1243 1600C1243 1472.42 1139.58 1369 1012 1369C884.422 1369 781 1472.42 781 1600C781 1727.58 884.422 1831 1012 1831Z" stroke="#F0ECE7" stroke-width="60"/>
<path fill-rule="evenodd" clip-rule="evenodd" d="M1938.5 1660C2032.66 1660 2109 1583.66 2109 1489.5C2109 1395.34 2032.66 1319 1938.5 1319C1844.34 1319 1768 1395.34 1768 1489.5C1768 1583.66 1844.34 1660 1938.5 1660Z" stroke="#F0ECE7" stroke-width="60"/>
<path d="M2888.16 2247.84C2935.72 2176.51 2954.72 2107.12 2908.89 2020.77C2870.62 1948.89 2902.77 1901.06 2943.7 1865.32C2893.74 1841.68 2836.87 1841.13 2828.77 1961.26C2791.7 1955.28 2755.03 1950.28 2731.91 1973.36C2774.16 1982.12 2799.94 1995.19 2814.55 2011.18C2707.86 2007.84 2682.09 2035.65 2678.9 2071.94C2829.17 2017.44 2910.75 2133.12 2850.69 2224.62C2796.61 2307.07 2723.94 2251.31 2722.87 2221.98C2722.08 2201.4 2739.62 2171.5 2769.38 2195C2794.89 2215.16 2806.45 2218.22 2809.37 2169.28C2801 2123.67 2756.49 2091.13 2695.77 2150.37C2651.79 2109.35 2612.73 2110.46 2589.88 2148.98C2569.28 2183.46 2597.98 2218.08 2611.8 2207.1C2664.41 2165.38 2697.63 2238.52 2651.79 2266.61C2589.48 2304.85 2539.92 2207.65 2487.7 2224.76C2485.98 2223.92 2484.25 2223.09 2482.52 2222.25C2481.73 2220.45 2480.93 2218.64 2480.13 2216.83C2496.47 2162.32 2403.6 2110.46 2440.14 2045.11C2466.98 1997.14 2536.73 2032.04 2497.01 2086.96C2486.51 2101.42 2519.59 2131.46 2552.54 2109.9C2589.35 2085.85 2590.41 2044.97 2551.21 1999.08C2607.81 1935.54 2576.72 1888.82 2533.14 1880.2C2486.38 1883.4 2489.3 1895.35 2508.56 1922.05C2531.02 1953.2 2502.45 1971.55 2482.79 1970.72C2454.75 1969.61 2401.34 1893.41 2480.26 1836.95C2567.82 1774.11 2678.37 1859.48 2626.15 2016.74C2660.96 2013.41 2687.4 1986.43 2684.21 1874.78C2699.49 1890.07 2711.98 1917.18 2720.35 1961.26C2742.54 1937.07 2737.62 1898.69 2731.91 1859.9C2846.7 1851.42 2846.17 1791.9 2823.59 1739.62C2789.44 1782.59 2743.73 1816.1 2675.04 1776.05C2592.53 1727.94 2526.24 1747.96 2458.08 1797.74C2488.24 1696.24 2429.64 1695.68 2403.87 1720.71C2378.09 1695.68 2319.37 1696.24 2349.66 1797.74C2281.5 1747.96 2215.2 1728.08 2132.69 1776.05C2064 1816.1 2018.29 1782.45 1984.15 1739.62C1961.56 1791.9 1961.03 1851.42 2075.82 1859.9C2070.11 1898.69 2065.33 1937.07 2087.38 1961.26C2095.75 1917.05 2108.24 1890.07 2123.52 1874.78C2120.33 1986.43 2146.91 2013.41 2181.58 2016.74C2129.5 1859.48 2240.05 1774.11 2327.6 1836.95C2406.39 1893.55 2353.11 1969.61 2325.08 1970.72C2305.41 1971.55 2276.85 1953.2 2299.3 1922.05C2318.57 1895.35 2321.49 1883.26 2274.72 1880.2C2231.14 1888.96 2200.05 1935.54 2256.65 1999.08C2217.46 2045.11 2218.52 2085.99 2255.32 2109.9C2288.27 2131.46 2321.36 2101.42 2310.86 2086.96C2271 2031.9 2340.89 1997.14 2367.73 2045.11C2404.27 2110.32 2311.39 2162.19 2327.74 2216.83C2326.94 2218.64 2326.14 2220.45 2325.34 2222.25C2323.62 2223.09 2321.89 2223.92 2320.16 2224.76C2268.08 2207.65 2218.52 2304.85 2156.07 2266.61C2110.24 2238.52 2143.59 2165.52 2196.07 2207.1C2209.88 2218.08 2238.58 2183.46 2217.99 2148.98C2195 2110.46 2155.94 2109.35 2112.1 2150.37C2051.38 2091.13 2006.73 2123.67 1998.5 2169.28C2001.55 2218.22 2012.98 2215.16 2038.49 2195C2068.25 2171.5 2085.79 2201.4 2084.99 2221.98C2083.93 2251.31 2011.12 2307.21 1957.18 2224.62C1897.12 2132.99 1978.7 2017.3 2128.97 2071.94C2125.78 2035.51 2100.01 2007.84 1993.32 2011.18C2007.93 1995.19 2033.84 1982.12 2075.96 1973.36C2052.84 1950.14 2016.17 1955.28 1979.1 1961.26C1970.99 1841.13 1914.13 1841.68 1864.17 1865.32C1905.23 1901.06 1937.25 1948.89 1898.98 2020.77C1853.01 2107.12 1872.14 2176.51 1919.71 2247.84C1822.72 2216.27 1822.19 2277.59 1846.1 2304.57C1822.19 2331.54 1822.72 2393 1919.71 2361.3C1872.14 2432.63 1853.14 2502.02 1898.98 2588.36C1937.25 2660.25 1905.09 2708.08 1864.17 2743.82C1914.13 2767.46 1970.99 2768.01 1979.1 2647.88C2016.17 2653.86 2052.84 2658.86 2075.96 2635.78C2033.71 2627.02 2007.93 2613.95 1993.32 2597.96C2100.01 2601.3 2125.78 2573.49 2128.97 2537.2C1978.97 2591.7 1897.39 2476.01 1957.31 2384.38C2011.39 2301.93 2084.06 2357.69 2085.13 2387.02C2085.92 2407.6 2068.38 2437.5 2038.62 2414C2013.11 2393.84 2001.55 2390.78 1998.63 2439.72C2007 2485.33 2051.51 2517.87 2112.23 2458.63C2156.21 2499.65 2195.27 2498.54 2218.12 2460.02C2238.72 2425.54 2210.02 2390.92 2196.2 2401.9C2143.59 2443.62 2110.37 2370.48 2156.21 2342.39C2218.52 2304.15 2268.08 2401.35 2320.3 2384.24C2322.02 2385.08 2323.75 2385.91 2325.48 2386.75C2326.27 2388.55 2327.07 2390.36 2327.87 2392.17C2311.53 2446.68 2404.4 2498.54 2367.86 2563.89C2341.02 2611.86 2271.27 2576.96 2310.99 2522.04C2321.49 2507.58 2288.41 2477.54 2255.46 2499.1C2218.65 2523.15 2217.59 2564.03 2256.79 2609.92C2200.19 2673.46 2231.28 2720.18 2274.86 2728.8C2321.62 2725.6 2318.7 2713.65 2299.44 2686.95C2276.98 2655.8 2305.55 2637.45 2325.21 2638.28C2353.25 2639.39 2406.66 2715.59 2327.74 2772.05C2240.18 2834.89 2129.63 2749.52 2181.72 2592.26C2146.91 2595.59 2120.47 2622.57 2123.66 2734.22C2108.38 2718.93 2095.89 2691.82 2087.52 2647.74C2065.33 2671.93 2070.24 2710.31 2075.96 2749.1C1961.16 2757.58 1961.69 2817.1 1984.28 2869.38C2018.43 2826.41 2064.13 2792.9 2132.82 2832.95C2215.33 2881.06 2281.63 2861.04 2349.79 2811.26C2319.63 2912.76 2378.22 2913.32 2404 2888.29C2429.78 2913.32 2488.5 2912.76 2458.21 2811.26C2526.37 2861.04 2592.67 2880.92 2675.18 2832.95C2743.87 2792.9 2789.57 2826.55 2823.72 2869.38C2846.31 2817.1 2846.84 2757.58 2732.04 2749.1C2737.76 2710.31 2742.54 2671.93 2720.48 2647.74C2712.11 2691.95 2699.62 2718.93 2684.34 2734.22C2687.53 2622.57 2660.96 2595.59 2626.28 2592.26C2678.37 2749.52 2567.82 2834.89 2480.4 2772.05C2401.61 2715.45 2454.89 2639.39 2482.92 2638.28C2502.59 2637.45 2531.15 2655.8 2508.7 2686.95C2489.43 2713.65 2486.51 2725.74 2533.28 2728.8C2576.86 2720.04 2607.95 2673.46 2551.35 2609.92C2590.54 2563.89 2589.48 2523.01 2552.68 2499.1C2519.72 2477.54 2486.64 2507.58 2497.14 2522.04C2537 2577.1 2467.11 2611.86 2440.27 2563.89C2403.73 2498.68 2496.61 2446.81 2480.26 2392.17C2481.06 2390.36 2481.86 2388.55 2482.66 2386.75C2484.38 2385.91 2486.11 2385.08 2487.84 2384.24C2539.92 2401.35 2589.48 2304.15 2651.93 2342.39C2697.76 2370.48 2664.41 2443.48 2611.93 2401.9C2598.12 2390.92 2569.42 2425.54 2590.01 2460.02C2613 2498.54 2652.06 2499.65 2695.9 2458.63C2756.62 2517.87 2801.27 2485.33 2809.5 2439.72C2806.45 2390.78 2795.02 2393.84 2769.51 2414C2739.75 2437.5 2722.21 2407.6 2723.01 2387.02C2724.07 2357.69 2796.88 2301.79 2850.82 2384.38C2910.88 2476.01 2829.3 2591.7 2679.03 2537.2C2682.22 2573.63 2707.99 2601.3 2814.68 2597.96C2800.07 2613.95 2774.16 2627.02 2732.04 2635.78C2755.16 2659 2791.83 2653.86 2828.9 2647.88C2837.01 2768.01 2893.87 2767.46 2943.83 2743.82C2902.77 2708.08 2870.75 2660.25 2909.02 2588.36C2954.99 2502.02 2935.86 2432.63 2888.29 2361.3C2985.28 2392.86 2985.81 2331.54 2961.9 2304.57C2985.68 2277.59 2985.15 2216.27 2888.16 2247.84Z" fill="#F0ECE7"/>
<path opacity="0.211105" d="M1093.96 2751.75C1143.28 2677.79 1162.98 2605.86 1115.45 2516.33C1075.78 2441.79 1109.12 2392.2 1151.54 2355.15C1099.75 2330.64 1040.79 2330.06 1032.39 2454.62C993.957 2448.43 955.938 2443.24 931.969 2467.17C975.774 2476.25 1002.5 2489.8 1017.65 2506.38C907.036 2502.92 880.313 2531.75 877.007 2569.38C1032.8 2512.87 1117.38 2632.81 1055.12 2727.68C999.054 2813.17 923.704 2755.36 922.602 2724.94C921.776 2703.6 939.959 2672.6 970.815 2696.97C997.263 2717.87 1009.25 2721.04 1012.28 2670.3C1003.6 2623.01 957.453 2589.28 894.501 2650.69C848.906 2608.16 808.407 2609.32 784.714 2649.25C763.362 2685 793.116 2720.9 807.443 2709.51C861.992 2666.26 896.43 2742.09 848.906 2771.21C784.3 2810.86 732.919 2710.09 678.783 2727.82C676.992 2726.96 675.202 2726.09 673.411 2725.23C672.584 2723.35 671.758 2721.48 670.931 2719.6C687.875 2663.09 591.587 2609.32 629.468 2541.56C657.294 2491.82 729.613 2528.01 688.426 2584.95C677.543 2599.94 711.843 2631.08 746.006 2608.74C784.163 2583.8 785.265 2541.41 744.628 2493.84C803.31 2427.95 771.076 2379.51 725.894 2370.58C677.406 2373.89 680.436 2386.29 700.41 2413.97C723.69 2446.26 694.073 2465.29 673.686 2464.43C644.621 2463.27 589.245 2384.27 671.069 2325.74C761.847 2260.58 876.456 2349.09 822.32 2512.15C858.41 2508.69 885.823 2480.72 882.517 2364.95C898.358 2380.81 911.307 2408.92 919.985 2454.62C942.99 2429.54 937.893 2389.75 931.969 2349.53C1050.99 2340.73 1050.44 2279.03 1027.02 2224.82C991.616 2269.37 944.229 2304.11 873.012 2262.59C787.469 2212.71 718.731 2233.47 648.065 2285.08C679.334 2179.84 618.586 2179.27 591.862 2205.22C565.139 2179.27 504.253 2179.84 535.66 2285.08C464.994 2233.47 396.256 2212.86 310.712 2262.59C239.495 2304.11 192.109 2269.23 156.707 2224.82C133.289 2279.03 132.738 2340.73 251.755 2349.53C245.832 2389.75 240.873 2429.54 263.739 2454.62C272.418 2408.78 285.366 2380.81 301.208 2364.95C297.902 2480.72 325.452 2508.69 361.405 2512.15C307.406 2349.09 422.015 2260.58 512.793 2325.74C594.479 2384.42 539.241 2463.27 510.176 2464.43C489.789 2465.29 460.172 2446.26 483.452 2413.97C503.426 2386.29 506.457 2373.75 457.968 2370.58C412.786 2379.66 380.552 2427.95 439.234 2493.84C398.598 2541.56 399.7 2583.94 437.857 2608.74C472.019 2631.08 506.319 2599.94 495.437 2584.95C454.111 2527.86 526.568 2491.82 554.394 2541.56C592.276 2609.17 495.988 2662.95 512.931 2719.6C512.104 2721.48 511.278 2723.35 510.451 2725.23C508.661 2726.09 506.87 2726.96 505.079 2727.82C451.081 2710.09 399.7 2810.86 334.957 2771.21C287.433 2742.09 322.008 2666.41 376.42 2709.51C390.746 2720.9 420.5 2685 399.149 2649.25C375.318 2609.32 334.819 2608.16 289.361 2650.69C226.409 2589.28 180.125 2623.01 171.584 2670.3C174.752 2721.04 186.599 2717.87 213.047 2696.97C243.903 2672.6 262.086 2703.6 261.26 2724.94C260.158 2755.36 184.67 2813.31 128.743 2727.68C66.48 2632.67 151.059 2512.72 306.855 2569.38C303.549 2531.61 276.826 2502.92 166.212 2506.38C181.364 2489.8 208.226 2476.25 251.893 2467.17C227.924 2443.09 189.905 2448.43 151.472 2454.62C143.07 2330.06 84.1121 2330.64 32.3177 2355.15C74.8828 2392.2 108.081 2441.79 68.4085 2516.33C20.7467 2605.86 40.5828 2677.79 89.8976 2751.75C-10.6606 2719.03 -11.2116 2782.6 13.5836 2810.57C-11.2116 2838.54 -10.6606 2902.26 89.8976 2869.39C40.5828 2943.35 20.8844 3015.29 68.4085 3104.82C108.081 3179.35 74.745 3228.94 32.3177 3265.99C84.1121 3290.5 143.07 3291.08 151.472 3166.52C189.905 3172.72 227.924 3177.91 251.893 3153.98C208.088 3144.89 181.364 3131.34 166.212 3114.76C276.826 3118.22 303.549 3089.39 306.855 3051.76C151.335 3108.28 66.7555 2988.33 128.881 2893.32C184.946 2807.83 260.296 2865.64 261.398 2896.06C262.224 2917.4 244.041 2948.4 213.185 2924.03C186.737 2903.13 174.752 2899.96 171.722 2950.7C180.4 2997.99 226.547 3031.72 289.499 2970.31C335.094 3012.84 375.593 3011.68 399.286 2971.75C420.638 2936 390.884 2900.1 376.557 2911.49C322.008 2954.74 287.57 2878.91 335.094 2849.79C399.7 2810.14 451.081 2910.91 505.217 2893.18C507.008 2894.04 508.798 2894.91 510.589 2895.77C511.416 2897.65 512.242 2899.52 513.069 2901.4C496.125 2957.91 592.413 3011.68 554.532 3079.44C526.706 3129.18 454.387 3092.99 495.574 3036.05C506.457 3021.06 472.157 2989.92 437.994 3012.26C399.837 3037.2 398.735 3079.59 439.372 3127.16C380.69 3193.05 412.924 3241.49 458.106 3250.42C506.594 3247.11 503.564 3234.71 483.59 3207.03C460.31 3174.74 489.927 3155.71 510.314 3156.57C539.379 3157.73 594.755 3236.73 512.931 3295.26C422.153 3360.42 307.544 3271.91 361.543 3108.85C325.452 3112.31 298.039 3140.28 301.345 3256.05C285.504 3240.19 272.555 3212.08 263.877 3166.38C240.873 3191.46 245.97 3231.25 251.893 3271.47C132.876 3280.27 133.427 3341.97 156.845 3396.18C192.247 3351.63 239.633 3316.89 310.85 3358.41C396.394 3408.29 465.131 3387.53 535.798 3335.92C504.528 3441.16 565.276 3441.73 592 3415.78C618.724 3441.73 679.61 3441.16 648.202 3335.92C718.869 3387.53 787.606 3408.14 873.15 3358.41C944.367 3316.89 991.753 3351.77 1027.16 3396.18C1050.57 3341.97 1051.12 3280.27 932.107 3271.47C938.03 3231.25 942.99 3191.46 920.123 3166.38C911.445 3212.22 898.496 3240.19 882.655 3256.05C885.961 3140.28 858.41 3112.31 822.457 3108.85C876.456 3271.91 761.847 3360.42 671.207 3295.26C589.521 3236.58 644.759 3157.73 673.824 3156.57C694.211 3155.71 723.828 3174.74 700.548 3207.03C680.574 3234.71 677.543 3247.25 726.032 3250.42C771.214 3241.34 803.448 3193.05 744.766 3127.16C785.402 3079.44 784.3 3037.06 746.143 3012.26C711.981 2989.92 677.681 3021.06 688.563 3036.05C729.889 3093.14 657.432 3129.18 629.606 3079.44C591.724 3011.83 688.012 2958.05 671.069 2901.4C671.896 2899.52 672.722 2897.65 673.549 2895.77C675.339 2894.91 677.13 2894.04 678.921 2893.18C732.919 2910.91 784.3 2810.14 849.043 2849.79C896.567 2878.91 861.992 2954.59 807.58 2911.49C793.254 2900.1 763.5 2936 784.851 2971.75C808.682 3011.68 849.181 3012.84 894.639 2970.31C957.591 3031.72 1003.88 2997.99 1012.42 2950.7C1009.25 2899.96 997.401 2903.13 970.953 2924.03C940.097 2948.4 921.914 2917.4 922.74 2896.06C923.842 2865.64 999.33 2807.69 1055.26 2893.32C1117.52 2988.33 1032.94 3108.28 877.145 3051.76C880.451 3089.53 907.174 3118.22 1017.79 3114.76C1002.64 3131.34 975.774 3144.89 932.107 3153.98C956.076 3178.05 994.095 3172.72 1032.53 3166.52C1040.93 3291.08 1099.89 3290.5 1151.68 3265.99C1109.12 3228.94 1075.92 3179.35 1115.59 3104.82C1163.25 3015.29 1143.42 2943.35 1094.1 2869.39C1194.66 2902.12 1195.21 2838.54 1170.42 2810.57C1195.07 2782.6 1194.52 2719.03 1093.96 2751.75Z" fill="#F0ECE7"/>
</svg>
