<svg width="78" height="78" viewBox="0 0 78 78" fill="none" xmlns="http://www.w3.org/2000/svg">
<path d="M22.976 23.4338C22.2157 23.4338 21.6025 24.046 21.6025 24.8075C21.6025 25.5685 22.2149 26.1808 22.976 26.1808C23.737 26.1808 24.3495 25.5687 24.3495 24.8075C24.3495 24.0471 23.7374 23.4338 22.976 23.4338Z" fill="#3E3D53"/>
<path d="M51.3104 23.4338H28.5206C27.7339 23.4338 27.0962 24.0489 27.0962 24.8073C27.0962 25.5658 27.7339 26.1808 28.5206 26.1808H51.3104C52.0969 26.1808 52.7347 25.5658 52.7347 24.8073C52.7347 24.0489 52.0969 23.4338 51.3104 23.4338Z" fill="#3E3D53" stroke="#3E3D53" stroke-width="0.5"/>
<path fill-rule="evenodd" clip-rule="evenodd" d="M22.9787 4.87394C23.7522 2.55785 25.9128 1 28.3536 1H49.6464C52.0871 1 54.2476 2.55783 55.0212 4.87268L57.545 12.4458H71.3343C74.4599 12.4458 77 14.9862 77 18.1114V65.6114C77 68.7367 74.4599 71.2771 71.3343 71.2771H70.4187V74.1958C70.4187 75.7441 69.1638 77 67.6145 77H56.1687C54.6194 77 53.3645 75.7441 53.3645 74.1958V71.2771H24.6355V74.1958C24.6355 75.7441 23.3806 77 21.8313 77H10.3855C8.83623 77 7.58133 75.7441 7.58133 74.1958V71.2771H6.66566C3.5401 71.2771 1 68.7367 1 65.6114V18.1114C1 14.9862 3.5401 12.4458 6.66566 12.4458H20.455L22.9787 4.87394ZM25.5842 5.74415L22.435 15.1928H6.66566C5.05732 15.1928 3.74699 16.5032 3.74699 18.1114V65.6114C3.74699 67.2197 5.05732 68.5301 6.66566 68.5301H10.3283V74.1958C10.3283 74.2275 10.3539 74.253 10.3855 74.253H21.8313C21.863 74.253 21.8886 74.2275 21.8886 74.1958V68.5301H56.1114V74.1958C56.1114 74.2275 56.137 74.253 56.1687 74.253H67.6145C67.6461 74.253 67.6717 74.2275 67.6717 74.1958V68.5301H71.3343C72.9427 68.5301 74.253 67.2197 74.253 65.6114V18.1114C74.253 16.5032 72.9427 15.1928 71.3343 15.1928H55.5649L52.4159 5.7434C52.0163 4.54784 50.9041 3.74699 49.6464 3.74699H28.3536C27.0961 3.74699 25.9838 4.54759 25.5842 5.74415Z" fill="#3E3D53" stroke="#3E3D53" stroke-width="0.5"/>
<path fill-rule="evenodd" clip-rule="evenodd" d="M28.9007 7.8068C29.0649 7.32631 29.544 7 30.0853 7H48.3184C48.8734 7 49.3612 7.3427 49.5137 7.83978L52 15.9449L49.6093 16.5811L47.3806 9.31574H30.9944L28.3693 17L26 16.2979L28.9007 7.8068Z" fill="#3E3D53" stroke="#3E3D53" stroke-width="0.5" stroke-linejoin="round"/>
<path fill-rule="evenodd" clip-rule="evenodd" d="M20.5689 12.4571C21.0684 11.8862 21.9361 11.8284 22.507 12.3279L25.7812 15.1929H52.6515L55.6895 12.3574C56.244 11.8399 57.1131 11.8698 57.6307 12.4244C58.1483 12.9789 58.1183 13.8481 57.5638 14.3656L54.13 17.5705C53.8757 17.8078 53.5408 17.9399 53.1929 17.9399H25.2652C24.9325 17.9399 24.6111 17.8191 24.3607 17.6L20.6981 14.3952C20.1272 13.8957 20.0693 13.028 20.5689 12.4571Z" fill="#3E3D53" stroke="#3E3D53" stroke-width="0.5" stroke-linecap="round" stroke-linejoin="round"/>
<path fill-rule="evenodd" clip-rule="evenodd" d="M73.795 70.5902L4.20459 70.5902L4.20459 67.8433L73.795 67.8433V70.5902Z" fill="#3E3D53" stroke="#3E3D53" stroke-width="0.5"/>
</svg>
