<svg width="66" height="77" viewBox="0 0 66 77" fill="none" xmlns="http://www.w3.org/2000/svg">
<path fill-rule="evenodd" clip-rule="evenodd" d="M62.1985 43.9749C60.1859 39.3325 57.4066 34.834 53.8926 30.624C49.6438 25.5012 45.4109 22.0754 43.2546 20.4907L51.4008 5.34668C51.8 4.59448 51.6724 3.66602 51.0493 3.07349C48.9409 1.00854 46.7047 0 44.213 0C41.9288 0 39.8364 0.864502 38.0155 1.63281L37.8646 1.69507C36.483 2.26489 35.1816 2.80151 34.1182 2.80151C33.7827 2.80151 33.4951 2.75342 33.2076 2.64136C29.4061 1.24854 26.483 0.384277 23.6559 0.384277C20.0779 0.384277 17.0271 1.82495 14.0402 4.89844C13.4172 5.53882 13.3214 6.54736 13.8165 7.2998L22.6017 20.6028C20.4293 22.2195 16.2764 25.6133 12.1074 30.624C8.60938 34.834 5.81409 39.3325 3.80151 43.9749C1.27783 49.8179 0 55.917 0 62.0962C0 70.3086 6.67664 77 14.8707 77H51.1293C59.3234 77 66 70.3086 66 62.0962C66 55.917 64.7222 49.8179 62.1985 43.9749ZM17.9056 6.49951C19.7585 4.89868 21.5315 4.19434 23.6559 4.19434C25.9241 4.19434 28.4797 4.96265 31.882 6.22729C32.5847 6.4834 33.3354 6.61157 34.1022 6.61157C35.9709 6.61157 37.7599 5.87524 39.469 5.15479L39.4785 5.15088C41.1204 4.46387 42.6825 3.81006 44.197 3.81006C44.9318 3.81006 45.97 3.93823 47.2798 4.8667L39.6128 19.146H26.2595L17.9056 6.49951ZM14.8707 73.1582H51.1293C57.215 73.1582 62.1665 68.1956 62.1345 62.0964C62.1345 51.8191 58.3969 42.1021 51.0015 33.1694C46.3374 27.5183 41.6094 23.9966 40.1559 22.988H25.8123C24.3746 24.0125 19.6307 27.5183 14.9666 33.1694C7.58716 42.1021 3.8335 51.835 3.8335 62.0964C3.8335 68.1956 8.78503 73.1582 14.8707 73.1582Z" fill="#3E3D53"/>
</svg>
