<svg width="80" height="80" viewBox="0 0 80 80" fill="none" xmlns="http://www.w3.org/2000/svg">
<path fill-rule="evenodd" clip-rule="evenodd" d="M79.4889 23.3774L63.4041 62.1951V71.6667C63.4041 76.2617 59.6659 80 55.0708 80H4.99988C2.24304 80 0 77.7571 0 75V5C0 2.24292 2.24304 0 4.99988 0H55.071C59.666 0 63.4042 3.73828 63.4042 8.33325V9.51172L75.875 14.667C77.5219 15.3477 78.8048 16.6287 79.4875 18.2737C80.1704 19.9189 80.1709 21.7317 79.4889 23.3774ZM36.7262 48.3333C45.9159 48.3333 53.3923 40.8569 53.3923 31.6667C53.3923 22.4766 45.9159 15 36.7262 15H36.6898C27.5 15 20.0237 22.4766 20.0237 31.6667C20.0237 40.8569 27.5002 48.3333 36.6898 48.3333H36.7262ZM51.3086 61.6665C52.229 61.6665 52.9752 60.9202 52.9752 60C52.9752 59.0796 52.229 58.3333 51.3086 58.3333H23.776C22.8556 58.3333 22.1094 59.0796 22.1094 60C22.1094 60.9202 22.8556 61.6665 23.776 61.6665H51.3086ZM23.4604 30H30.0354V21.6665C30.0354 21.0898 30.1091 20.5298 30.2474 19.9956C26.6041 22.0149 24.0001 25.6914 23.4604 30ZM30.0354 41.6665C30.0354 42.2434 30.109 42.8035 30.2474 43.3376C26.6042 41.3184 24.0001 37.6418 23.4604 33.3333H30.0354V41.6665ZM40.0471 33.3333H33.3687V41.6665C33.3687 43.5046 34.864 45 36.7018 45C38.5519 45 40.0471 43.5046 40.0471 41.6665V33.3333ZM36.714 18.3333C38.552 18.3333 40.0471 19.8286 40.0471 21.6665V30H33.3687V21.6665C33.3687 19.8286 34.864 18.3333 36.714 18.3333ZM49.9553 33.3333H43.3804V41.6665C43.3804 42.2434 43.3066 42.8035 43.1683 43.3376C46.8116 41.3184 49.4156 37.6418 49.9553 33.3333ZM43.1683 19.9956C46.8115 22.0149 49.4156 25.6914 49.9553 30H43.3804V21.6665C43.3804 21.0898 43.3069 20.5298 43.1683 19.9956ZM4.99976 3.33325H10.0118V76.6665H4.99976C4.08081 76.6665 3.33313 75.9189 3.33313 75V5C3.33313 4.08081 4.08081 3.33325 4.99976 3.33325ZM60.0708 8.33325C60.0708 5.57617 57.8278 3.33325 55.0709 3.33325H13.345V76.6665H55.0709C57.828 76.6665 60.0708 74.4236 60.0708 71.6665V25.3066C60.0439 25.1372 60.0431 24.9626 60.0708 24.7886V10.6699C60.0699 10.6401 60.0699 10.6108 60.0708 10.5811V8.33325ZM74.6016 17.7476C75.4258 18.0881 76.0675 18.7288 76.4089 19.5515C76.75 20.3733 76.7504 21.2791 76.4097 22.1013L73.8567 28.2629L72.0812 27.5291C71.2303 27.1772 70.2561 27.5818 69.9042 28.4326C69.5526 29.2832 69.957 30.2581 70.8077 30.6096L72.5804 31.3423L63.4041 53.4878V27.5488L64.8711 28.1555C65.7216 28.5068 66.6964 28.1025 67.0481 27.252C67.3998 26.4011 66.9952 25.4265 66.1445 25.075L63.4041 23.9419V13.1189L74.6016 17.7476Z" fill="#3E3D53"/>
</svg>
