<svg width="85" height="85" viewBox="0 0 85 85" fill="none" xmlns="http://www.w3.org/2000/svg">
<path fill-rule="evenodd" clip-rule="evenodd" d="M83.4467 49.9681L77.0829 45.1371L77.0832 38.4991C77.0829 36.1498 75.2847 34.3537 72.9331 34.3537C70.5812 34.3534 68.783 36.1499 68.7831 38.4987L68.7832 38.8358L63.2498 34.6355L63.25 27.4444C63.2496 25.0952 61.4515 23.299 59.0998 23.2991C56.7481 23.2991 54.9497 25.0952 54.9496 27.4447L54.9496 28.3344L49.4164 24.1334L49.4162 16.9426C49.4166 12.6591 48.7248 8.51353 47.2032 4.50598C46.5113 2.43363 44.5748 1.18985 42.4994 1.18994C40.4245 1.18979 38.4879 2.57178 37.7963 4.64446C36.2747 8.65158 35.5829 12.797 35.5832 17.0807L35.583 23.9955L30.0498 28.1959L30.0496 27.4445C30.0496 25.095 28.2515 23.2989 25.8998 23.299C23.5482 23.299 21.7497 25.0951 21.7496 27.4446L21.7494 34.497L16.2165 38.6978L16.2162 38.499C16.2165 36.1499 14.4181 34.3534 12.0664 34.3534C9.71476 34.3535 7.9163 36.1496 7.91622 38.4991L7.91634 44.9993L1.55272 49.8297C1.13793 50.1064 0.99939 50.5207 0.999539 50.935L0.999512 59.226C0.999526 59.27 1.00123 59.313 1.00421 59.3552C1.00914 59.4155 1.01745 59.4739 1.02824 59.5297C1.04621 59.6213 1.07148 59.7071 1.10315 59.7864L1.12781 59.8437C1.14451 59.8814 1.16266 59.9178 1.18202 59.9523C1.20106 59.9852 1.22113 60.0171 1.24173 60.0469C1.26422 60.079 1.28767 60.1089 1.31166 60.1368C1.38691 60.2241 1.46987 60.2907 1.55285 60.3319C1.82933 60.4699 2.10582 60.608 2.38278 60.6082L2.79777 60.6082L35.583 49.0804L35.583 68.9223L25.3462 73.1828C24.7927 73.3208 24.5161 73.874 24.516 74.4266L24.5164 82.7173C24.5164 83.2699 24.7931 83.6847 25.208 83.961C25.4847 84.2371 26.0379 84.2374 26.4531 84.0991L42.4998 77.3283L58.5464 83.9607C58.6849 84.099 58.9612 84.099 59.0999 84.099L59.1994 84.0985L59.2719 84.0961L59.3266 84.0933C59.3926 84.0884 59.4587 84.079 59.5253 84.0614C59.6599 84.026 59.7949 83.9571 59.9296 83.8223C60.2064 83.5458 60.483 83.1313 60.4828 82.717L60.4828 74.426C60.4829 74.311 60.4709 74.2023 60.447 74.0994C60.4281 74.0167 60.401 73.9376 60.3661 73.8625C60.3264 73.7761 60.276 73.6947 60.2156 73.6184C60.0795 73.4472 59.8919 73.3019 59.6526 73.1823L49.416 68.9217L49.4159 49.2039L82.2012 60.4701C82.3394 60.6079 82.4781 60.6079 82.6164 60.6081C82.8931 60.6079 83.1694 60.608 83.4466 60.4699C83.7229 60.1936 83.9995 59.7791 83.9995 59.3641L83.9995 51.0732C83.9998 50.6586 83.7234 50.2442 83.4467 49.9681ZM71.5499 38.4991C71.5498 37.6698 72.1036 37.1172 72.9336 37.1173C73.7635 37.1173 74.3165 37.6698 74.3166 38.4991L74.3167 42.9211L71.55 40.8479L71.5499 38.4991ZM59.0999 26.0629C58.2699 26.0628 57.7161 26.6154 57.7163 27.4447L57.7163 30.3461L60.4829 32.4193L60.4829 27.4447C60.4828 26.6154 59.9299 26.0629 59.0999 26.0629ZM24.5163 27.4446C24.5162 26.6153 25.0699 26.0627 25.8999 26.0627C26.7299 26.0628 27.2832 26.7537 27.2829 27.4445L27.283 30.2963L24.5165 32.397L24.5163 27.4446ZM12.0658 37.117C11.2361 37.1174 10.6827 37.6697 10.6829 38.499L10.6829 42.8985L13.4493 40.7984L13.4495 38.499C13.4492 37.808 12.8962 37.1169 12.0658 37.117ZM3.7662 57.2915L3.76653 51.626L14.3715 43.6116L15.663 42.6444C15.7257 42.6026 15.7801 42.5571 15.8308 42.5092L35.583 27.5825L35.5829 46.3752L3.7662 57.2915ZM43.0534 74.5646L57.7164 80.6443L57.7172 75.3936L42.5003 69.0371L27.2834 75.3937L27.2834 80.6445L41.9465 74.5643C42.0852 74.5643 42.3617 74.426 42.5 74.4263C42.6383 74.4265 42.915 74.4263 43.0534 74.5646ZM43.0528 66.2734C42.638 66.1351 42.2231 66.1351 41.9465 66.2733L38.3494 67.7705L38.3497 47.2045L38.3497 25.9243L38.3498 25.0954L38.3497 24.6811L38.3498 17.0807C38.3495 13.0733 39.0415 9.20457 40.4248 5.47351C40.8397 4.36794 41.6695 3.95368 42.4999 3.95349C43.3299 3.95355 44.1596 4.36818 44.5744 5.47339C45.9578 9.20442 46.6496 13.0736 46.6496 16.9426L46.6498 24.819L46.6495 25.2336L46.6496 26.0629L46.6498 47.3425L46.6498 67.7702L43.0528 66.2734ZM49.4164 46.3755L81.2334 57.2918L81.2333 51.6266L70.6264 43.6105L69.3364 42.6447L69.3095 42.6156L61.2672 36.5384C61.1905 36.5032 61.1136 36.4648 61.0367 36.4263L55.5035 32.2811C55.4221 32.1995 55.3414 32.1057 55.2675 32.0041L49.4165 27.5828L49.4164 46.3755Z" fill="#3E3D53"/>
<path d="M77.0829 45.1371L76.7829 45.1371L76.7829 45.286L76.9015 45.376L77.0829 45.1371ZM83.4467 49.9681L83.6586 49.7558L83.6442 49.7415L83.6281 49.7292L83.4467 49.9681ZM77.0832 38.4991L77.3832 38.4991V38.499L77.0832 38.4991ZM72.9331 34.3537L72.933 34.6537H72.9331L72.9331 34.3537ZM68.7831 38.4987L68.4831 38.4987V38.4988L68.7831 38.4987ZM68.7832 38.8358L68.6018 39.0748L69.0834 39.4403L69.0832 38.8357L68.7832 38.8358ZM63.2498 34.6355L62.9498 34.6355L62.9498 34.7844L63.0684 34.8744L63.2498 34.6355ZM63.25 27.4444L63.55 27.4444V27.4444L63.25 27.4444ZM54.9496 27.4447L54.6496 27.4447V27.4447L54.9496 27.4447ZM54.9496 28.3344L54.7682 28.5734L55.2497 28.9389L55.2496 28.3344L54.9496 28.3344ZM49.4164 24.1334L49.1164 24.1334L49.1164 24.2823L49.235 24.3724L49.4164 24.1334ZM49.4162 16.9426L49.1162 16.9426V16.9426L49.4162 16.9426ZM47.2032 4.50598L46.9184 4.60106L46.9227 4.61246L47.2032 4.50598ZM42.4994 1.18994L42.4994 1.48994H42.4994L42.4994 1.18994ZM37.7963 4.64446L38.077 4.75105L38.0809 4.73941L37.7963 4.64446ZM35.5832 17.0807L35.8832 17.0808V17.0807L35.5832 17.0807ZM35.583 23.9955L35.7644 24.2345L35.883 24.1444L35.883 23.9955L35.583 23.9955ZM30.0498 28.1959L29.7498 28.196L29.75 28.8002L30.2312 28.4349L30.0498 28.1959ZM30.0496 27.4445L29.7496 27.4445V27.4446L30.0496 27.4445ZM21.7496 27.4446L21.4496 27.4446V27.4446L21.7496 27.4446ZM21.7494 34.497L21.9308 34.7359L22.0494 34.6459L22.0494 34.497L21.7494 34.497ZM16.2165 38.6978L15.9165 38.6983L15.9175 39.3015L16.3979 38.9368L16.2165 38.6978ZM16.2162 38.499L15.9162 38.4989L15.9162 38.4995L16.2162 38.499ZM7.91622 38.4991L7.61622 38.4991V38.4991L7.91622 38.4991ZM7.91634 44.9993L8.09772 45.2382L8.21634 45.1482L8.21634 44.9993L7.91634 44.9993ZM1.55272 49.8297L1.7192 50.0793L1.72681 50.0742L1.7341 50.0686L1.55272 49.8297ZM0.999539 50.935H1.29954L1.29954 50.9349L0.999539 50.935ZM0.999512 59.226H0.699512L0.699512 59.2261L0.999512 59.226ZM1.00421 59.3552L0.704926 59.3763L0.705204 59.3797L1.00421 59.3552ZM1.02824 59.5297L0.733692 59.5866L0.733843 59.5874L1.02824 59.5297ZM1.10315 59.7864L0.824466 59.8977L0.827541 59.9049L1.10315 59.7864ZM1.12781 59.8437L0.852188 59.9622L0.853503 59.9652L1.12781 59.8437ZM1.18202 59.9523L0.920357 60.0991L0.922209 60.1023L1.18202 59.9523ZM1.24173 60.0469L0.99489 60.2174L0.995987 60.219L1.24173 60.0469ZM1.31166 60.1368L1.08426 60.3325L1.08435 60.3326L1.31166 60.1368ZM1.55285 60.3319L1.68687 60.0635L1.68621 60.0631L1.55285 60.3319ZM2.38278 60.6082L2.38254 60.9082H2.38276L2.38278 60.6082ZM2.79777 60.6082L2.79775 60.9082L2.84896 60.9083L2.89728 60.8913L2.79777 60.6082ZM35.583 49.0804H35.883V48.6569L35.4834 48.7974L35.583 49.0804ZM35.583 68.9223L35.6983 69.1992L35.883 69.1224V68.9223H35.583ZM25.3462 73.1828L25.4188 73.4739L25.4406 73.4684L25.4615 73.4597L25.3462 73.1828ZM24.516 74.4266L24.216 74.4265V74.4266L24.516 74.4266ZM24.5164 82.7173L24.8164 82.7174V82.7173L24.5164 82.7173ZM25.208 83.961L25.4199 83.7487L25.3989 83.7277L25.3743 83.7113L25.208 83.961ZM26.4531 84.0991L26.5479 84.3838L26.559 84.3801L26.5698 84.3755L26.4531 84.0991ZM42.4998 77.3283L42.6144 77.0511L42.4986 77.0032L42.3832 77.0519L42.4998 77.3283ZM58.5464 83.9607L58.7584 83.7484L58.7162 83.7063L58.661 83.6835L58.5464 83.9607ZM59.0999 84.099L59.0999 84.399L59.1014 84.399L59.0999 84.099ZM59.1994 84.0985L59.2009 84.3986L59.2092 84.3983L59.1994 84.0985ZM59.2719 84.0961L59.2817 84.396L59.2874 84.3957L59.2719 84.0961ZM59.3266 84.0933L59.3422 84.3929L59.3485 84.3925L59.3266 84.0933ZM59.5253 84.0614L59.4489 83.7713L59.4487 83.7714L59.5253 84.0614ZM59.9296 83.8223L59.7176 83.6101L59.7175 83.6102L59.9296 83.8223ZM60.4828 82.717H60.1828V82.7171L60.4828 82.717ZM60.4828 74.426L60.1828 74.4258V74.426H60.4828ZM60.447 74.0994L60.1546 74.1665L60.1548 74.1672L60.447 74.0994ZM60.3661 73.8625L60.0936 73.9879L60.0941 73.989L60.3661 73.8625ZM60.2156 73.6184L60.4508 73.4322L60.4505 73.4318L60.2156 73.6184ZM59.6526 73.1823L59.7867 72.914L59.7774 72.9093L59.7679 72.9054L59.6526 73.1823ZM49.416 68.9217H49.116L49.116 69.1218L49.3007 69.1987L49.416 68.9217ZM49.4159 49.2039L49.5134 48.9202L49.1159 48.7836V49.2039L49.4159 49.2039ZM82.2012 60.4701L82.413 60.2576L82.3641 60.2088L82.2987 60.1863L82.2012 60.4701ZM82.6164 60.6081L82.6159 60.9081H82.6166L82.6164 60.6081ZM83.4466 60.4699L83.5803 60.7384L83.6241 60.7166L83.6587 60.6821L83.4466 60.4699ZM83.9995 59.3641L84.2995 59.3642V59.3641H83.9995ZM83.9995 51.0732L83.6995 51.073V51.0732L83.9995 51.0732ZM71.5499 38.4991L71.8499 38.4991V38.4991L71.5499 38.4991ZM74.3166 38.4991L74.6166 38.4991V38.499L74.3166 38.4991ZM74.3167 42.9211L74.1368 43.1611L74.6167 43.5208L74.6167 42.9211L74.3167 42.9211ZM71.55 40.8479L71.25 40.8479L71.2501 40.998L71.3701 41.088L71.55 40.8479ZM57.7163 27.4447L58.0163 27.4447V27.4447L57.7163 27.4447ZM57.7163 30.3461L57.4163 30.3461V30.4962L57.5364 30.5862L57.7163 30.3461ZM60.4829 32.4193L60.303 32.6593L60.7829 33.0189V32.4193H60.4829ZM60.4829 27.4447L60.7829 27.4447V27.4446L60.4829 27.4447ZM24.5163 27.4446L24.8163 27.4446V27.4445L24.5163 27.4446ZM27.2829 27.4445L26.9829 27.4444V27.4446L27.2829 27.4445ZM27.283 30.2963L27.4645 30.5352L27.583 30.4452L27.583 30.2963L27.283 30.2963ZM24.5165 32.397L24.2165 32.3971L24.2165 33.0015L24.6979 32.636L24.5165 32.397ZM10.6829 38.499H10.9829V38.499L10.6829 38.499ZM12.0658 37.117L12.0658 36.817H12.0657L12.0658 37.117ZM10.6829 42.8985H10.3829L10.3829 43.5029L10.8643 43.1374L10.6829 42.8985ZM13.4493 40.7984L13.6307 41.0373L13.7493 40.9473L13.7493 40.7984L13.4493 40.7984ZM13.4495 38.499L13.7495 38.499V38.4989L13.4495 38.499ZM3.76653 51.626L3.58566 51.3867L3.46654 51.4767L3.46653 51.626L3.76653 51.626ZM3.7662 57.2915L3.4662 57.2915L3.46618 57.7116L3.86356 57.5752L3.7662 57.2915ZM14.3715 43.6116L14.1917 43.3715L14.1907 43.3723L14.3715 43.6116ZM15.663 42.6444L15.4965 42.3949L15.4897 42.3994L15.4832 42.4043L15.663 42.6444ZM15.8308 42.5092L15.6499 42.2699L15.6368 42.2798L15.6248 42.2911L15.8308 42.5092ZM35.583 27.5825L35.883 27.5825L35.8831 26.9798L35.4022 27.3432L35.583 27.5825ZM35.5829 46.3752L35.6803 46.659L35.8829 46.5895V46.3752H35.5829ZM57.7164 80.6443L57.6015 80.9214L58.0164 81.0934L58.0165 80.6443L57.7164 80.6443ZM43.0534 74.5646L42.8415 74.7768L42.8836 74.8189L42.9385 74.8417L43.0534 74.5646ZM57.7172 75.3936L58.0172 75.3936L58.0172 75.1938L57.8328 75.1167L57.7172 75.3936ZM42.5003 69.0371L42.6159 68.7603L42.5003 68.712L42.3846 68.7603L42.5003 69.0371ZM27.2834 75.3937L27.1678 75.1168L26.9834 75.1938L26.9834 75.3936L27.2834 75.3937ZM27.2834 80.6445L26.9834 80.6445L26.9834 81.0937L27.3983 80.9216L27.2834 80.6445ZM41.9465 74.5643L41.9465 74.2643H41.8868L41.8316 74.2872L41.9465 74.5643ZM41.9465 66.2733L42.0618 66.5503L42.0714 66.5463L42.0807 66.5417L41.9465 66.2733ZM43.0528 66.2734L43.1681 65.9964L43.158 65.9923L43.1477 65.9888L43.0528 66.2734ZM38.3494 67.7705L38.0494 67.7705L38.0494 68.2203L38.4647 68.0475L38.3494 67.7705ZM38.3497 47.2045H38.6497H38.3497ZM38.3497 25.9243L38.0497 25.9242V25.9243H38.3497ZM38.3498 25.0954L38.6498 25.0954V25.0953L38.3498 25.0954ZM38.3497 24.6811L38.0497 24.6811V24.6812L38.3497 24.6811ZM38.3498 17.0807L38.6498 17.0807V17.0807L38.3498 17.0807ZM40.4248 5.47351L40.1439 5.36811L40.1435 5.36923L40.4248 5.47351ZM42.4999 3.95349L42.4999 3.65349H42.4999L42.4999 3.95349ZM44.5744 5.47339L44.8557 5.36909L44.8553 5.36797L44.5744 5.47339ZM46.6496 16.9426L46.3496 16.9426V16.9426L46.6496 16.9426ZM46.6498 24.819L46.9498 24.8192V24.819L46.6498 24.819ZM46.6495 25.2336L46.3495 25.2334V25.2336L46.6495 25.2336ZM46.6496 26.0629L46.9496 26.0629V26.0629L46.6496 26.0629ZM46.6498 47.3425H46.9498V47.3425L46.6498 47.3425ZM46.6498 67.7702L46.5345 68.0471L46.9498 68.2199V67.7702H46.6498ZM81.2334 57.2918L81.136 57.5756L81.5334 57.7119L81.5334 57.2918L81.2334 57.2918ZM49.4164 46.3755L49.1164 46.3755V46.5898L49.319 46.6593L49.4164 46.3755ZM81.2333 51.6266L81.5333 51.6266V51.4773L81.4142 51.3873L81.2333 51.6266ZM70.6264 43.6105L70.8073 43.3712L70.8062 43.3703L70.6264 43.6105ZM69.3364 42.6447L69.1164 42.8486L69.1349 42.8685L69.1566 42.8848L69.3364 42.6447ZM69.3095 42.6156L69.5295 42.4117L69.5115 42.3923L69.4904 42.3763L69.3095 42.6156ZM61.2672 36.5384L61.448 36.2991L61.422 36.2794L61.3923 36.2658L61.2672 36.5384ZM61.0367 36.4263L60.8568 36.6664L60.8783 36.6825L60.9024 36.6946L61.0367 36.4263ZM55.5035 32.2811L55.2913 32.4931L55.3065 32.5083L55.3236 32.5212L55.5035 32.2811ZM55.2675 32.0041L55.5101 31.8276L55.4839 31.7916L55.4483 31.7647L55.2675 32.0041ZM49.4165 27.5828L49.5974 27.3435L49.1165 26.9801L49.1165 27.5828L49.4165 27.5828ZM76.9015 45.376L83.2653 50.2071L83.6281 49.7292L77.2643 44.8982L76.9015 45.376ZM76.7832 38.499L76.7829 45.1371L77.3829 45.1371L77.3832 38.4991L76.7832 38.499ZM72.9331 34.6537C75.1193 34.6537 76.7829 36.3158 76.7832 38.4991L77.3832 38.499C77.3829 35.9838 75.4501 34.0537 72.9331 34.0537L72.9331 34.6537ZM69.0831 38.4987C69.083 36.3159 70.7465 34.6534 72.933 34.6537L72.9331 34.0537C70.4158 34.0533 68.4829 35.9839 68.4831 38.4987L69.0831 38.4987ZM69.0832 38.8357L69.0831 38.4986L68.4831 38.4988L68.4832 38.8359L69.0832 38.8357ZM63.0684 34.8744L68.6018 39.0748L68.9645 38.5968L63.4312 34.3965L63.0684 34.8744ZM62.95 27.4444L62.9498 34.6355L63.5498 34.6355L63.55 27.4444L62.95 27.4444ZM59.0998 23.5991C61.2861 23.599 62.9496 25.2612 62.95 27.4445L63.55 27.4444C63.5496 24.9292 61.6168 22.999 59.0998 22.9991L59.0998 23.5991ZM55.2496 27.4447C55.2497 25.2613 56.9135 23.5991 59.0998 23.5991L59.0998 22.9991C56.5828 22.9991 54.6497 24.9292 54.6496 27.4447L55.2496 27.4447ZM55.2496 28.3344L55.2496 27.4447L54.6496 27.4447L54.6496 28.3344L55.2496 28.3344ZM49.235 24.3724L54.7682 28.5734L55.131 28.0955L49.5978 23.8945L49.235 24.3724ZM49.1162 16.9426L49.1164 24.1334L49.7164 24.1334L49.7162 16.9426L49.1162 16.9426ZM46.9227 4.61246C48.4302 8.58303 49.1166 12.6921 49.1162 16.9426L49.7162 16.9426C49.7166 12.626 49.0193 8.44404 47.4836 4.39949L46.9227 4.61246ZM42.4994 1.48994C44.457 1.48985 46.2711 2.66144 46.9186 4.60098L47.4877 4.41098C46.7515 2.20583 44.6926 0.88984 42.4994 0.889941L42.4994 1.48994ZM38.0809 4.73941C38.7324 2.78675 40.5561 1.4898 42.4994 1.48994L42.4994 0.889941C40.2929 0.889784 38.2433 2.3568 37.5117 4.54951L38.0809 4.73941ZM35.8832 17.0807C35.8829 12.8301 36.5692 8.72108 38.0768 4.75096L37.5158 4.53797C35.9802 8.58208 35.2829 12.764 35.2832 17.0808L35.8832 17.0807ZM35.883 23.9955L35.8832 17.0808L35.2832 17.0807L35.283 23.9955L35.883 23.9955ZM30.2312 28.4349L35.7644 24.2345L35.4016 23.7566L29.8684 27.957L30.2312 28.4349ZM29.7496 27.4446L29.7498 28.196L30.3498 28.1958L30.3496 27.4444L29.7496 27.4446ZM25.8998 23.599C28.0861 23.5989 29.7496 25.261 29.7496 27.4445L30.3496 27.4445C30.3497 24.9291 28.4169 22.9989 25.8998 22.999L25.8998 23.599ZM22.0496 27.4446C22.0497 25.2611 23.7135 23.599 25.8998 23.599L25.8998 22.999C23.3828 22.999 21.4497 24.9291 21.4496 27.4446L22.0496 27.4446ZM22.0494 34.497L22.0496 27.4446L21.4496 27.4446L21.4494 34.497L22.0494 34.497ZM16.3979 38.9368L21.9308 34.7359L21.568 34.258L16.0351 38.4589L16.3979 38.9368ZM15.9162 38.4995L15.9165 38.6983L16.5165 38.6973L16.5162 38.4985L15.9162 38.4995ZM12.0664 34.6534C14.2527 34.6534 15.9165 36.3159 15.9162 38.4989L16.5162 38.499C16.5165 35.984 14.5834 34.0534 12.0664 34.0534L12.0664 34.6534ZM8.21622 38.4991C8.21629 36.3156 9.88012 34.6535 12.0664 34.6534L12.0664 34.0534C9.5494 34.0535 7.6163 35.9836 7.61622 38.4991L8.21622 38.4991ZM8.21634 44.9993L8.21622 38.4991L7.61622 38.4991L7.61634 44.9993L8.21634 44.9993ZM1.7341 50.0686L8.09772 45.2382L7.73495 44.7603L1.37133 49.5907L1.7341 50.0686ZM1.29954 50.9349C1.29941 50.5902 1.41053 50.2852 1.7192 50.0793L1.38624 49.5801C0.865332 49.9276 0.699365 50.4512 0.699539 50.9351L1.29954 50.9349ZM1.29951 59.226L1.29954 50.935L0.699539 50.935L0.699512 59.226H1.29951ZM1.30347 59.3342C1.30093 59.2981 1.29952 59.2622 1.29951 59.2259L0.699512 59.2261C0.699528 59.2778 0.701534 59.3278 0.704946 59.3763L1.30347 59.3342ZM1.32278 59.4727C1.31394 59.427 1.30719 59.3795 1.30321 59.3308L0.705204 59.3797C0.711085 59.4516 0.720968 59.5208 0.733693 59.5866L1.32278 59.4727ZM1.38174 59.6751C1.35733 59.614 1.33719 59.5462 1.32264 59.472L0.733843 59.5874C0.75523 59.6965 0.785641 59.8002 0.824559 59.8977L1.38174 59.6751ZM1.40342 59.7252L1.37876 59.6679L0.827541 59.9049L0.852204 59.9622L1.40342 59.7252ZM1.44366 59.8055C1.42908 59.7795 1.41513 59.7516 1.40212 59.7223L0.853503 59.9652C0.873896 60.0112 0.896248 60.056 0.920377 60.099L1.44366 59.8055ZM1.48857 59.8764C1.47284 59.8536 1.45708 59.8287 1.44182 59.8023L0.922209 60.1023C0.945042 60.1418 0.969411 60.1805 0.994895 60.2174L1.48857 59.8764ZM1.53905 59.9411C1.52115 59.9203 1.50389 59.8983 1.48747 59.8748L0.995987 60.219C1.02456 60.2598 1.05419 60.2975 1.08426 60.3325L1.53905 59.9411ZM1.68621 60.0631C1.64568 60.043 1.59334 60.0041 1.53897 59.941L1.08435 60.3326C1.18047 60.4441 1.29406 60.5383 1.41949 60.6006L1.68621 60.0631ZM2.38302 60.3082C2.19038 60.3081 1.98063 60.2102 1.68687 60.0635L1.41882 60.6003C1.67804 60.7297 2.02126 60.9079 2.38254 60.9082L2.38302 60.3082ZM2.79779 60.3082L2.3828 60.3082L2.38276 60.9082L2.79775 60.9082L2.79779 60.3082ZM35.4834 48.7974L2.69826 60.3252L2.89728 60.8913L35.6825 49.3634L35.4834 48.7974ZM35.883 68.9223L35.883 49.0804H35.283L35.283 68.9223H35.883ZM25.4615 73.4597L35.6983 69.1992L35.4677 68.6453L25.2309 72.9058L25.4615 73.4597ZM24.816 74.4266C24.8161 73.9514 25.0497 73.5659 25.4188 73.4739L25.2736 72.8917C24.5357 73.0757 24.2161 73.7966 24.216 74.4265L24.816 74.4266ZM24.8164 82.7173L24.816 74.4266L24.216 74.4266L24.2164 82.7173L24.8164 82.7173ZM25.3743 83.7113C25.0285 83.481 24.8164 83.1534 24.8164 82.7174L24.2164 82.7173C24.2163 83.3864 24.5576 83.8883 25.0417 84.2107L25.3743 83.7113ZM26.3584 83.8145C26.1852 83.8721 25.9831 83.9003 25.8016 83.8863C25.6156 83.872 25.4886 83.8172 25.4199 83.7487L24.9961 84.1734C25.2041 84.381 25.492 84.4643 25.7556 84.4846C26.0237 84.5052 26.3059 84.4644 26.5479 84.3838L26.3584 83.8145ZM42.3832 77.0519L26.3365 83.8227L26.5698 84.3755L42.6165 77.6047L42.3832 77.0519ZM58.661 83.6835L42.6144 77.0511L42.3852 77.6056L58.4318 84.238L58.661 83.6835ZM59.0998 83.799C59.0288 83.799 58.9484 83.7985 58.8724 83.7858C58.8354 83.7796 58.8065 83.7716 58.7854 83.763C58.7643 83.7543 58.7579 83.7479 58.7584 83.7484L58.3344 84.173C58.4701 84.3084 58.6491 84.3568 58.7737 84.3776C58.9052 84.3995 59.0322 84.399 59.0999 84.399L59.0998 83.799ZM59.1978 83.7985L59.0983 83.799L59.1014 84.399L59.2009 84.3985L59.1978 83.7985ZM59.262 83.7963L59.1895 83.7987L59.2092 84.3983L59.2817 84.3959L59.262 83.7963ZM59.311 83.7937L59.2563 83.7965L59.2874 84.3957L59.3422 84.3929L59.311 83.7937ZM59.4487 83.7714C59.4041 83.7831 59.3569 83.7902 59.3047 83.7941L59.3485 84.3925C59.4283 84.3866 59.5134 84.3748 59.6018 84.3515L59.4487 83.7714ZM59.7175 83.6102C59.621 83.7067 59.5332 83.7491 59.4489 83.7713L59.6016 84.3515C59.7866 84.3029 59.9687 84.2075 60.1418 84.0345L59.7175 83.6102ZM60.1828 82.7171C60.1829 83.0115 59.9749 83.353 59.7176 83.6101L60.1417 84.0346C60.4379 83.7387 60.783 83.2511 60.7828 82.7169L60.1828 82.7171ZM60.1828 74.426L60.1828 82.717H60.7828L60.7828 74.426H60.1828ZM60.1548 74.1672C60.1731 74.2461 60.1829 74.3318 60.1828 74.4258L60.7828 74.4263C60.783 74.2901 60.7687 74.1584 60.7393 74.0315L60.1548 74.1672ZM60.0941 73.989C60.12 74.0447 60.1403 74.1039 60.1546 74.1665L60.7395 74.0323C60.7159 73.9296 60.6821 73.8306 60.6382 73.7361L60.0941 73.989ZM59.9804 73.8047C60.0266 73.863 60.0642 73.9241 60.0936 73.9879L60.6387 73.7372C60.5885 73.6281 60.5254 73.5263 60.4508 73.4322L59.9804 73.8047ZM59.5185 73.4507C59.7272 73.5549 59.8773 73.6749 59.9807 73.8051L60.4505 73.4318C60.2818 73.2195 60.0565 73.0488 59.7867 72.914L59.5185 73.4507ZM49.3007 69.1987L59.5373 73.4593L59.7679 72.9054L49.5313 68.6448L49.3007 69.1987ZM49.1159 49.2039L49.116 68.9217H49.716L49.7159 49.2039L49.1159 49.2039ZM82.2987 60.1863L49.5134 48.9202L49.3185 49.4876L82.1037 60.7538L82.2987 60.1863ZM82.6169 60.3081C82.542 60.308 82.5093 60.3066 82.4813 60.2996C82.4634 60.2951 82.4427 60.2872 82.413 60.2576L81.9893 60.6825C82.2208 60.9133 82.474 60.9079 82.6159 60.9081L82.6169 60.3081ZM83.3128 60.2014C83.1075 60.3036 82.9005 60.3079 82.6161 60.3081L82.6166 60.9081C82.8857 60.9079 83.2313 60.9123 83.5803 60.7384L83.3128 60.2014ZM83.6995 59.3641C83.6995 59.6594 83.4913 60.001 83.2345 60.2577L83.6587 60.6821C83.9545 60.3863 84.2995 59.8989 84.2995 59.3642L83.6995 59.3641ZM83.6995 51.0732L83.6995 59.3641H84.2995L84.2995 51.0732L83.6995 51.0732ZM83.2348 50.1805C83.4919 50.437 83.6997 50.7783 83.6995 51.073L84.2995 51.0734C84.2999 50.5389 83.9549 50.0514 83.6586 49.7558L83.2348 50.1805ZM72.9336 36.8173C72.4505 36.8172 72.0245 36.9793 71.7185 37.2849C71.4124 37.5905 71.2499 38.0162 71.2499 38.4991L71.8499 38.4991C71.8499 38.1527 71.9642 37.8875 72.1424 37.7095C72.3207 37.5314 72.5866 37.4173 72.9335 37.4173L72.9336 36.8173ZM74.6166 38.499C74.6165 38.0162 74.4542 37.5906 74.1483 37.285C73.8424 36.9794 73.4166 36.8173 72.9336 36.8173L72.9335 37.4173C73.2805 37.4173 73.5461 37.5315 73.7242 37.7094C73.9023 37.8874 74.0165 38.1526 74.0166 38.4991L74.6166 38.499ZM74.6167 42.9211L74.6166 38.4991L74.0166 38.4991L74.0167 42.9211L74.6167 42.9211ZM71.3701 41.088L74.1368 43.1611L74.4966 42.681L71.7299 40.6078L71.3701 41.088ZM71.2499 38.4991L71.25 40.8479L71.85 40.8479L71.8499 38.4991L71.2499 38.4991ZM58.0163 27.4447C58.0162 27.0983 58.1305 26.8331 58.3087 26.6551C58.4871 26.477 58.7529 26.3629 59.0999 26.3629L59.0999 25.7629C58.6169 25.7628 58.1908 25.9249 57.8848 26.2305C57.5787 26.5361 57.4162 26.9618 57.4163 27.4447L58.0163 27.4447ZM58.0163 30.3461L58.0163 27.4447L57.4163 27.4447L57.4163 30.3461L58.0163 30.3461ZM60.6628 32.1792L57.8962 30.106L57.5364 30.5862L60.303 32.6593L60.6628 32.1792ZM60.1829 27.4447L60.1829 32.4193L60.7829 32.4193L60.7829 27.4447L60.1829 27.4447ZM59.0999 26.3629C59.4468 26.3629 59.7124 26.4771 59.8905 26.655C60.0686 26.833 60.1828 27.0982 60.1829 27.4447L60.7829 27.4446C60.7828 26.9618 60.6205 26.5362 60.3146 26.2306C60.0088 25.925 59.5829 25.7629 59.0999 25.7629L59.0999 26.3629ZM25.8999 25.7628C25.4169 25.7627 24.9909 25.9248 24.6848 26.2304C24.3788 26.536 24.2162 26.9616 24.2163 27.4446L24.8163 27.4445C24.8162 27.0982 24.9305 26.8329 25.1088 26.6549C25.2871 26.4769 25.5529 26.3627 25.8999 26.3627L25.8999 25.7628ZM27.5829 27.4447C27.5833 26.6075 26.9144 25.7628 25.8999 25.7628L25.8999 26.3627C26.5454 26.3628 26.9832 26.8999 26.9829 27.4444L27.5829 27.4447ZM27.583 30.2963L27.5829 27.4445L26.9829 27.4446L26.983 30.2963L27.583 30.2963ZM24.6979 32.636L27.4645 30.5352L27.1016 30.0574L24.335 32.1581L24.6979 32.636ZM24.2163 27.4446L24.2165 32.3971L24.8165 32.397L24.8163 27.4446L24.2163 27.4446ZM10.9829 38.499C10.9828 38.1526 11.097 37.8874 11.2752 37.7094C11.4534 37.5314 11.7191 37.4172 12.0659 37.417L12.0657 36.817C11.5828 36.8172 11.157 36.9794 10.8511 37.2849C10.5452 37.5906 10.3828 38.0161 10.3829 38.4991L10.9829 38.499ZM10.9829 42.8985L10.9829 38.499L10.3829 38.499L10.3829 42.8985L10.9829 42.8985ZM13.2679 40.5595L10.5015 42.6595L10.8643 43.1374L13.6307 41.0373L13.2679 40.5595ZM13.1495 38.499L13.1493 40.7984L13.7493 40.7984L13.7495 38.499L13.1495 38.499ZM12.0659 37.417C12.7115 37.4169 13.1492 37.954 13.1495 38.4992L13.7495 38.4989C13.7491 37.6619 13.0809 36.8168 12.0658 36.817L12.0659 37.417ZM3.46653 51.626L3.4662 57.2915L4.0662 57.2915L4.06653 51.6261L3.46653 51.626ZM14.1907 43.3723L3.58566 51.3867L3.94741 51.8654L14.5524 43.851L14.1907 43.3723ZM15.4832 42.4043L14.1917 43.3715L14.5514 43.8518L15.8428 42.8845L15.4832 42.4043ZM15.6248 42.2911C15.5831 42.3304 15.5419 42.3646 15.4965 42.3949L15.8295 42.894C15.9094 42.8406 15.977 42.7838 16.0367 42.7274L15.6248 42.2911ZM35.4022 27.3432L15.6499 42.2699L16.0116 42.7486L35.7639 27.8218L35.4022 27.3432ZM35.8829 46.3752L35.883 27.5825L35.2831 27.5825L35.2829 46.3752L35.8829 46.3752ZM3.86356 57.5752L35.6803 46.659L35.4855 46.0915L3.66884 57.0077L3.86356 57.5752ZM57.8314 80.3671L43.1683 74.2874L42.9385 74.8417L57.6015 80.9214L57.8314 80.3671ZM57.4172 75.3935L57.4165 80.6442L58.0165 80.6443L58.0172 75.3936L57.4172 75.3935ZM42.3846 69.3139L57.6015 75.6704L57.8328 75.1167L42.6159 68.7603L42.3846 69.3139ZM27.3991 75.6705L42.6159 69.3139L42.3846 68.7603L27.1678 75.1168L27.3991 75.6705ZM27.5834 80.6445L27.5834 75.3937L26.9834 75.3936L26.9834 80.6445L27.5834 80.6445ZM41.8316 74.2872L27.1685 80.3674L27.3983 80.9216L42.0614 74.8414L41.8316 74.2872ZM42.5005 74.1263C42.4242 74.1261 42.3491 74.1438 42.296 74.1582C42.2388 74.1738 42.1786 74.1939 42.1287 74.2105C42.0749 74.2284 42.0313 74.2429 41.9932 74.2532C41.9512 74.2647 41.9396 74.2643 41.9465 74.2643L41.9465 74.8643C42.0227 74.8643 42.0977 74.8466 42.1509 74.8321C42.208 74.8166 42.2682 74.7965 42.3181 74.7798C42.3719 74.7619 42.4155 74.7475 42.4534 74.7372C42.4954 74.7258 42.5067 74.7263 42.4995 74.7263L42.5005 74.1263ZM43.2654 74.3523C43.1296 74.2167 42.9504 74.1684 42.8259 74.1477C42.6945 74.1259 42.5674 74.1264 42.5005 74.1263L42.4995 74.7263C42.5708 74.7264 42.6512 74.7269 42.7274 74.7396C42.7645 74.7458 42.7935 74.7538 42.8146 74.7624C42.8357 74.771 42.842 74.7774 42.8415 74.7768L43.2654 74.3523ZM42.0807 66.5417C42.2609 66.4515 42.587 66.4343 42.9579 66.558L43.1477 65.9888C42.6891 65.8359 42.1852 65.8186 41.8124 66.005L42.0807 66.5417ZM38.4647 68.0475L42.0618 66.5503L41.8312 65.9963L38.2341 67.4935L38.4647 68.0475ZM38.0497 47.2045L38.0494 67.7705L38.6494 67.7705L38.6497 47.2045L38.0497 47.2045ZM38.0497 25.9243L38.0497 47.2045L38.6497 47.2045L38.6497 25.9243L38.0497 25.9243ZM38.0498 25.0954L38.0497 25.9242L38.6497 25.9243L38.6498 25.0954L38.0498 25.0954ZM38.0497 24.6812L38.0498 25.0955L38.6498 25.0953L38.6497 24.681L38.0497 24.6812ZM38.0498 17.0807L38.0497 24.6811L38.6497 24.6811L38.6498 17.0807L38.0498 17.0807ZM40.1435 5.36923C38.7478 9.13388 38.0495 13.0379 38.0498 17.0807L38.6498 17.0807C38.6495 13.1087 39.3353 9.27526 40.7061 5.5778L40.1435 5.36923ZM42.4999 3.65349C42.0348 3.6536 41.5599 3.7699 41.1403 4.04927C40.7191 4.32972 40.371 4.7631 40.1439 5.36811L40.7057 5.57892C40.8935 5.07835 41.1678 4.75182 41.4728 4.54869C41.7795 4.3445 42.1346 4.25358 42.5 4.25349L42.4999 3.65349ZM44.8553 5.36797C44.6283 4.76316 44.2802 4.3298 43.8592 4.04933C43.4397 3.76992 42.9648 3.65353 42.4999 3.65349L42.4999 4.25349C42.865 4.25352 43.22 4.34447 43.5265 4.54869C43.8315 4.75185 44.1057 5.07841 44.2936 5.57881L44.8553 5.36797ZM46.9496 16.9426C46.9496 13.0377 46.2513 9.13314 44.8557 5.36909L44.2931 5.57768C45.6643 9.2757 46.3496 13.1096 46.3496 16.9426L46.9496 16.9426ZM46.9498 24.819L46.9496 16.9426L46.3496 16.9426L46.3498 24.819L46.9498 24.819ZM46.9495 25.2338L46.9498 24.8192L46.3498 24.8188L46.3495 25.2334L46.9495 25.2338ZM46.9496 26.0629L46.9495 25.2335L46.3495 25.2336L46.3496 26.0629L46.9496 26.0629ZM46.9498 47.3425L46.9496 26.0629L46.3496 26.0629L46.3498 47.3425L46.9498 47.3425ZM46.9498 67.7702L46.9498 47.3425H46.3498L46.3498 67.7702H46.9498ZM42.9375 66.5504L46.5345 68.0471L46.765 67.4932L43.1681 65.9964L42.9375 66.5504ZM81.3307 57.0081L49.5137 46.0918L49.319 46.6593L81.136 57.5756L81.3307 57.0081ZM80.9333 51.6266L80.9334 57.2918L81.5334 57.2918L81.5333 51.6266L80.9333 51.6266ZM70.4456 43.8498L81.0524 51.866L81.4142 51.3873L70.8073 43.3712L70.4456 43.8498ZM69.1566 42.8848L70.4466 43.8506L70.8062 43.3703L69.5162 42.4045L69.1566 42.8848ZM69.0895 42.8196L69.1164 42.8486L69.5564 42.4407L69.5295 42.4117L69.0895 42.8196ZM61.0863 36.7778L69.1287 42.855L69.4904 42.3763L61.448 36.2991L61.0863 36.7778ZM60.9024 36.6946C60.9785 36.7326 61.06 36.7734 61.142 36.8111L61.3923 36.2658C61.321 36.2331 61.2486 36.1969 61.1709 36.158L60.9024 36.6946ZM55.3236 32.5212L60.8568 36.6664L61.2165 36.1862L55.6834 32.041L55.3236 32.5212ZM55.0248 32.1805C55.1079 32.2948 55.1988 32.4005 55.2913 32.4931L55.7157 32.069C55.6453 31.9985 55.5748 31.9166 55.5101 31.8276L55.0248 32.1805ZM49.2356 27.8221L55.0866 32.2434L55.4483 31.7647L49.5974 27.3435L49.2356 27.8221ZM49.7164 46.3755L49.7165 27.5828L49.1165 27.5828L49.1164 46.3755L49.7164 46.3755Z" fill="#3E3D53"/>
</svg>
